<svg width="549" height="406" viewBox="0 0 549 406" fill="none" xmlns="http://www.w3.org/2000/svg">
<g clip-path="url(#clip0_39:2)">
<path d="M394.846 240.854L399.157 238.194C399.567 237.934 399.971 237.657 400.386 237.397C391.141 235.808 382.715 231.109 376.504 224.079C370.293 217.048 366.67 208.109 366.234 198.739C365.917 192.295 367.135 185.868 369.788 179.987C372.259 174.484 375.907 169.59 380.475 165.65C385.042 161.711 390.419 158.821 396.226 157.184L396.012 174.148L405.332 155.684C405.37 155.678 405.409 155.678 405.448 155.684C410.849 155.432 416.246 156.246 421.333 158.079C426.419 159.913 431.094 162.73 435.091 166.37C439.089 170.011 442.33 174.402 444.629 179.295C446.929 184.187 448.242 189.485 448.494 194.885C448.528 195.669 448.494 196.442 448.494 197.193C451.737 193.494 454.68 189.53 456.631 185.185C460.578 176.386 460.671 166.422 460.342 154.311C459.718 130.308 458.685 106.126 457.335 82.0136C447.604 80.933 438.577 76.4184 431.876 69.2809C425.175 62.1434 421.239 52.8507 420.776 43.0724C420.718 41.8088 420.735 40.5683 420.776 39.3335C420.776 39.0277 420.776 38.7161 420.822 38.4103C420.902 37.2159 421.012 36.0331 421.197 34.8676C421.197 34.6714 421.266 34.4868 421.301 34.2906C421.47 33.302 421.672 32.325 421.907 31.3595C421.999 31.0017 422.086 30.6382 422.184 30.2805C422.472 29.2304 422.761 28.1976 423.159 27.1763C423.28 26.8359 423.424 26.507 423.551 26.1723C423.846 25.4222 424.163 24.6837 424.498 23.9509C424.677 23.5643 424.85 23.1835 425.04 22.7969C425.086 22.6988 425.127 22.6007 425.179 22.5027C429.524 13.9219 436.739 7.13467 445.57 3.32085C454.401 -0.49298 464.29 -1.09228 473.517 1.62711L473.24 23.7028L482.474 5.46987C490.048 9.80435 496.037 16.4464 499.567 24.426C503.097 32.4056 503.983 41.3045 502.095 49.8232H502.141C502.078 50.1175 501.986 50.4002 501.916 50.6887C501.789 51.2311 501.651 51.7677 501.501 52.3043C501.305 52.9909 501.085 53.666 500.86 54.341C500.687 54.843 500.52 55.3565 500.329 55.8528C500.052 56.5798 499.752 57.2895 499.417 57.9992C499.233 58.4146 499.065 58.8358 498.84 59.2455C498.313 60.3071 497.736 61.3457 497.109 62.3612C496.895 62.7132 496.653 63.0478 496.428 63.3998C495.989 64.0807 495.545 64.7557 495.066 65.4135C494.772 65.8174 494.454 66.204 494.143 66.6021C493.693 67.1791 493.231 67.7561 492.752 68.2812C492.411 68.6677 492.065 69.0486 491.707 69.4351C491.205 69.966 490.686 70.4795 490.149 70.9873C489.797 71.3277 489.439 71.6681 489.07 71.9912C488.464 72.5278 487.829 73.0413 487.189 73.5433C486.865 73.7972 486.554 74.0626 486.219 74.305C485.246 75.0281 484.24 75.707 483.201 76.3417C483.005 76.4571 482.797 76.5552 482.624 76.6706C481.758 77.1841 480.892 77.663 479.963 78.1131C479.577 78.3035 479.173 78.4708 478.774 78.6497C478.03 78.9844 477.28 79.3075 476.512 79.6017C476.068 79.7691 475.612 79.9248 475.156 80.0806C474.4 80.3403 473.632 80.5768 472.848 80.7903C472.386 80.9173 471.93 81.0442 471.463 81.1538C470.62 81.3558 469.76 81.5231 468.894 81.6674C468.837 81.6674 468.785 81.6674 468.727 81.702C469.296 91.8724 469.802 102.049 470.245 112.231C472.699 107.192 476.158 102.709 480.408 99.0549C484.657 95.4009 489.609 92.6535 494.959 90.9813C500.309 89.3091 505.944 88.7474 511.519 89.3306C517.094 89.9138 522.49 91.6296 527.378 94.3727L520.101 114.308L535.071 99.9349C543.084 107.279 547.858 117.5 548.344 128.358C548.535 132.167 548.183 135.985 547.3 139.695C545.419 147.726 541.168 155.005 535.098 160.591C529.029 166.176 521.42 169.808 513.26 171.016C505.1 172.225 496.765 170.954 489.337 167.368C481.908 163.782 475.729 158.047 471.601 150.906C471.601 151.939 471.676 152.978 471.705 154.011C471.976 164.696 472.317 177.99 466.99 189.865C463.383 197.914 457.572 204.451 451.829 210.308C448.096 214.122 444.223 217.808 440.253 221.38C436.349 226.621 431.253 230.858 425.387 233.739C418.865 238.763 412.113 243.467 405.13 247.852L400.889 250.587C396.97 253.016 392.953 255.509 389.012 258.088C389.704 258.019 390.391 257.944 391.095 257.915C399.82 257.506 408.449 259.881 415.735 264.697C423.022 269.512 428.588 276.519 431.631 284.705L405.904 305.644L434.182 299.084C434.174 306.044 432.402 312.889 429.03 318.979C425.659 325.069 420.798 330.206 414.903 333.908C409.008 337.611 402.27 339.759 395.319 340.152C388.368 340.545 381.431 339.17 375.156 336.155C375.79 336.951 376.431 337.742 377.066 338.532C378.33 340.108 379.588 341.671 380.817 343.223C397.553 364.416 402.216 384.542 393.923 399.884L383.847 394.437C391.926 379.505 379.807 360.395 371.826 350.32C370.619 348.797 369.384 347.262 368.138 345.704C357.444 332.434 345.325 317.363 345.631 298.893C346.064 271.082 373.124 254.309 394.846 240.854Z" fill="#F2F2F2"/>
<path d="M263.371 406C408.55 406 526.241 400.575 526.241 393.883C526.241 387.191 408.55 381.766 263.371 381.766C118.191 381.766 0.5 387.191 0.5 393.883C0.5 400.575 118.191 406 263.371 406Z" fill="#3F3D56"/>
<path d="M475.739 389.365C477.47 386.186 475.508 382.291 473.269 379.453C471.03 376.614 468.3 373.683 468.358 370.053C468.438 364.861 473.95 361.797 478.359 359.044C481.624 357 484.636 354.577 487.333 351.826C488.465 350.768 489.4 349.518 490.097 348.134C491.003 346.103 490.98 343.795 490.922 341.567C490.73 334.159 490.364 326.758 489.826 319.365" stroke="#3F3D56" stroke-width="4" stroke-miterlimit="10"/>
<path d="M498.2 318.972C498.135 317.617 497.732 316.299 497.026 315.14C496.32 313.981 495.335 313.017 494.16 312.337L492.348 315.926L492.4 311.587C491.16 311.216 489.85 311.147 488.579 311.388C487.307 311.629 486.112 312.171 485.094 312.969C484.076 313.768 483.265 314.799 482.729 315.976C482.192 317.153 481.946 318.442 482.012 319.734C482.113 321.876 483.061 323.891 484.648 325.334C485.433 326.049 486.352 326.602 487.351 326.962C488.351 327.322 489.411 327.481 490.472 327.431C491.533 327.381 492.574 327.123 493.535 326.67C494.496 326.218 495.359 325.581 496.074 324.796C496.789 324.01 497.342 323.092 497.702 322.093C498.061 321.093 498.221 320.033 498.171 318.972H498.2Z" fill="#57B793"/>
<path d="M483.755 373.787C482.907 375.434 481.518 376.739 479.822 377.485C478.125 378.23 476.224 378.37 474.437 377.88C472.65 377.391 471.085 376.302 470.006 374.797C468.926 373.291 468.396 371.46 468.506 369.611C468.616 367.762 469.358 366.006 470.608 364.639C471.858 363.272 473.54 362.375 475.373 362.101C477.205 361.826 479.077 362.189 480.673 363.13C482.269 364.07 483.494 365.531 484.141 367.267L479.086 371.381L484.649 370.088C484.65 371.375 484.343 372.643 483.755 373.787V373.787Z" fill="#57B793"/>
<path d="M479.755 358.04C478.693 358.092 477.631 357.932 476.63 357.572C475.629 357.212 474.709 356.657 473.922 355.94C473.136 355.224 472.5 354.359 472.049 353.395C471.598 352.432 471.342 351.389 471.295 350.326C471.231 349.059 471.47 347.795 471.993 346.639C472.478 345.557 473.195 344.594 474.092 343.818C474.99 343.043 476.046 342.473 477.187 342.15L477.147 345.491L478.982 341.856C481.129 341.756 483.227 342.512 484.816 343.959C486.405 345.406 487.354 347.424 487.454 349.57C487.554 351.716 486.798 353.815 485.351 355.403C483.904 356.992 481.885 357.94 479.738 358.04H479.755Z" fill="#57B793"/>
<path d="M499.417 344.937C497.274 345.038 495.179 344.284 493.593 342.84C492.006 341.397 491.058 339.382 490.957 337.24C490.856 335.098 491.61 333.003 493.054 331.416C494.498 329.83 496.513 328.882 498.656 328.781C500.17 328.707 501.675 329.063 502.995 329.808L501.564 333.732L504.507 330.905C506.087 332.348 507.029 334.359 507.127 336.496C507.164 337.244 507.094 337.994 506.92 338.723C506.516 340.434 505.565 341.966 504.211 343.088C502.857 344.209 501.174 344.858 499.417 344.937V344.937Z" fill="#57B793"/>
<path opacity="0.1" d="M497.109 321.107C495.239 321.315 493.421 321.898 491.546 322.013C489.67 322.129 487.61 321.678 486.421 320.219C485.78 319.434 485.463 318.442 484.921 317.588C484.41 316.79 483.71 316.13 482.883 315.666C482.395 316.688 482.126 317.8 482.095 318.932C482.064 320.064 482.272 321.189 482.704 322.236C483.136 323.282 483.784 324.226 484.604 325.006C485.425 325.786 486.4 326.385 487.468 326.764C488.535 327.143 489.669 327.294 490.798 327.206C491.927 327.118 493.025 326.794 494.021 326.254C495.017 325.715 495.888 324.972 496.578 324.075C497.268 323.177 497.761 322.145 498.027 321.044C497.715 321.055 497.409 321.078 497.109 321.107Z" fill="black"/>
<path opacity="0.1" d="M499.417 344.937C498.02 345.008 496.629 344.715 495.379 344.087C494.13 343.459 493.065 342.517 492.288 341.354C491.511 340.191 491.05 338.846 490.949 337.452C490.849 336.057 491.112 334.66 491.713 333.397C492.356 333.831 492.909 334.386 493.34 335.03C493.918 335.901 494.264 336.905 494.945 337.707C496.203 339.19 498.361 339.675 500.318 339.582C502.274 339.49 504.155 338.942 506.089 338.763C506.354 338.763 506.631 338.717 506.902 338.711C506.502 340.422 505.554 341.955 504.203 343.078C502.853 344.201 501.172 344.854 499.417 344.937Z" fill="black"/>
<path opacity="0.1" d="M479.755 358.04C478.693 358.092 477.631 357.932 476.63 357.572C475.629 357.212 474.709 356.657 473.922 355.94C473.136 355.224 472.5 354.359 472.049 353.395C471.598 352.432 471.342 351.389 471.295 350.326C471.231 349.059 471.47 347.795 471.993 346.639C472.665 347.078 473.252 347.635 473.725 348.284C474.354 349.172 474.746 350.193 475.456 351.013C476.824 352.536 479.121 353.073 481.193 353.021C483.264 352.969 485.128 352.484 487.125 352.334C486.632 353.927 485.66 355.33 484.342 356.351C483.023 357.372 481.422 357.962 479.755 358.04Z" fill="black"/>
<path opacity="0.1" d="M483.755 373.787C483.319 374.756 482.697 375.63 481.923 376.359C481.149 377.088 480.239 377.658 479.246 378.035C478.252 378.413 477.193 378.591 476.131 378.559C475.068 378.528 474.022 378.287 473.052 377.851C472.083 377.416 471.208 376.793 470.479 376.02C469.75 375.246 469.181 374.337 468.803 373.343C468.426 372.35 468.247 371.291 468.279 370.229C468.31 369.166 468.551 368.121 468.987 367.151C469.652 367.593 470.25 368.127 470.764 368.738C471.532 369.678 472.04 370.74 472.934 371.623C474.59 373.244 477.262 373.931 479.64 373.977C481.014 373.995 482.388 373.931 483.755 373.787V373.787Z" fill="black"/>
<path d="M463.527 385.701C463.527 385.701 469.916 385.505 471.843 384.132C473.771 382.759 481.654 381.12 482.156 383.324C482.658 385.528 491.765 394.287 484.545 394.322C477.326 394.356 467.775 393.168 465.853 392.014C463.931 390.86 463.527 385.701 463.527 385.701Z" fill="#656380"/>
<path opacity="0.2" d="M484.672 393.554C477.459 393.612 467.902 392.4 465.98 391.246C464.52 390.358 463.931 387.155 463.741 385.678H463.527C463.527 385.678 463.931 390.831 465.836 392.025C467.74 393.22 477.309 394.379 484.528 394.333C486.612 394.333 487.333 393.572 487.292 392.475C487.021 393.127 486.225 393.543 484.672 393.554Z" fill="black"/>
<path d="M112.695 371.565C108.505 363.81 113.272 354.313 118.72 347.401C124.167 340.488 130.839 333.299 130.695 324.488C130.487 311.829 117.052 304.357 106.318 297.647C98.3525 292.667 91.0048 286.761 84.4282 280.054C81.7908 277.36 79.2342 274.486 77.6991 271.047C75.4831 266.097 75.5408 260.471 75.685 255.048C76.1467 236.968 77.0393 218.924 78.3628 200.914" stroke="#3F3D56" stroke-width="4" stroke-miterlimit="10"/>
<path d="M57.9506 199.928C58.1087 196.625 59.0941 193.414 60.8164 190.592C62.5386 187.769 64.9426 185.424 67.8075 183.772L72.2282 192.513L72.0954 181.931C76.1115 180.748 80.3997 180.872 84.3409 182.284C88.2821 183.696 91.6724 186.325 94.0222 189.789C96.372 193.254 97.5597 197.375 97.4139 201.558C97.268 205.742 95.7962 209.771 93.2108 213.063C90.6254 216.356 87.0604 218.741 83.0304 219.876C79.0003 221.011 74.7139 220.835 70.79 219.376C66.8661 217.916 63.5078 215.247 61.2 211.754C58.8922 208.262 57.7543 204.126 57.9506 199.945V199.928Z" fill="#57B793"/>
<path d="M93.1655 333.536C95.1508 337.404 98.3583 340.508 102.29 342.367C106.221 344.225 110.657 344.733 114.907 343.812C119.157 342.891 122.983 340.593 125.792 337.274C128.601 333.954 130.235 329.801 130.441 325.458C130.578 322.728 130.14 319.999 129.154 317.449C127.712 313.709 125.166 310.497 121.854 308.239C118.542 305.98 114.621 304.783 110.613 304.806C106.604 304.83 102.697 306.072 99.4118 308.368C96.1263 310.665 93.6175 313.906 92.219 317.663L104.552 327.691L90.984 324.535C90.9784 327.666 91.7266 330.754 93.1655 333.536Z" fill="#57B793"/>
<path d="M102.913 295.212C107.754 295.433 112.508 293.867 116.27 290.811C120.031 287.755 122.537 283.422 123.31 278.639C124.084 273.855 123.071 268.954 120.464 264.869C117.857 260.784 113.839 257.799 109.174 256.484L109.278 264.614L104.834 255.769H104.783C99.5503 255.525 94.4353 257.369 90.5629 260.895C86.6905 264.422 84.3779 269.342 84.1338 274.573C83.8897 279.804 85.734 284.918 89.2612 288.79C92.7883 292.661 97.7093 294.974 102.942 295.218L102.913 295.212Z" fill="#57B793"/>
<path d="M54.9785 263.322C58.0356 263.47 61.0854 262.907 63.8872 261.675C66.6891 260.444 69.1663 258.578 71.1234 256.225C73.0804 253.873 74.4637 251.097 75.164 248.118C75.8644 245.14 75.8627 242.039 75.1589 239.061C74.4552 236.082 73.0688 233.309 71.1091 230.958C69.1495 228.608 66.6702 226.745 63.8669 225.516C61.0637 224.288 58.0132 223.728 54.9564 223.88C51.8995 224.032 48.9199 224.893 46.2527 226.394L49.7154 235.955L42.5651 229.048C40.6536 230.787 39.1039 232.886 38.0047 235.225C36.9055 237.563 36.2784 240.096 36.1592 242.677C36.0676 244.503 36.2366 246.333 36.6613 248.112C37.6429 252.295 39.9627 256.043 43.2685 258.788C46.5744 261.533 50.6858 263.125 54.9785 263.322V263.322Z" fill="#57B793"/>
<path opacity="0.1" d="M60.6053 205.19C65.1644 205.692 69.5966 207.105 74.1672 207.388C78.7379 207.671 83.7645 206.58 86.6557 203.026C88.2139 201.11 88.993 198.687 90.3088 196.598C91.5556 194.652 93.2646 193.045 95.2834 191.919C96.5406 194.421 97.2511 197.162 97.3679 199.959C97.4846 202.757 97.0049 205.547 95.9606 208.145C94.9162 210.743 93.3312 213.089 91.3106 215.028C89.2899 216.967 86.88 218.454 84.2407 219.39C81.6014 220.327 78.7931 220.691 76.0022 220.459C73.2113 220.228 70.5016 219.405 68.0529 218.046C65.6042 216.687 63.4726 214.823 61.7996 212.578C60.1265 210.333 58.9502 207.757 58.3488 205.022C59.1164 205.057 59.8666 205.109 60.6053 205.19Z" fill="black"/>
<path opacity="0.1" d="M54.9786 263.322C58.3814 263.478 61.767 262.753 64.8067 261.216C67.8465 259.679 70.4372 257.382 72.3274 254.549C74.2176 251.716 75.3431 248.442 75.5947 245.045C75.8463 241.649 75.2154 238.245 73.7633 235.164C72.1955 236.218 70.8471 237.567 69.7928 239.134C68.3847 241.257 67.5363 243.71 65.88 245.66C62.8041 249.272 57.5524 250.455 52.7856 250.241C48.0187 250.028 43.4192 248.666 38.6754 248.233C38.0175 248.176 37.3481 248.129 36.6844 248.112C37.6649 252.291 39.9812 256.037 43.2825 258.782C46.5837 261.526 50.6898 263.12 54.9786 263.322V263.322Z" fill="black"/>
<path opacity="0.1" d="M102.913 295.212C106.282 295.37 109.636 294.662 112.655 293.156C115.673 291.65 118.255 289.396 120.155 286.609C122.054 283.822 123.207 280.594 123.505 277.235C123.802 273.875 123.234 270.496 121.853 267.418C120.227 268.498 118.813 269.867 117.681 271.457C116.146 273.621 115.188 276.113 113.393 278.11C110.063 281.82 104.465 283.13 99.4155 283.008C94.5275 282.905 89.8183 281.705 84.9591 281.329C86.1621 285.208 88.5311 288.621 91.7436 291.105C94.9561 293.589 98.8561 295.023 102.913 295.212V295.212Z" fill="black"/>
<path opacity="0.1" d="M93.1655 333.536C95.1508 337.404 98.3583 340.508 102.29 342.367C106.221 344.225 110.657 344.733 114.907 343.812C119.157 342.891 122.983 340.593 125.792 337.274C128.601 333.954 130.235 329.801 130.441 325.458C130.578 322.727 130.14 319.999 129.154 317.449C127.529 318.516 126.07 319.817 124.825 321.309C122.95 323.617 121.709 326.191 119.539 328.325C115.499 332.284 108.984 333.922 103.184 334.095C99.8364 334.107 96.491 333.92 93.1655 333.536V333.536Z" fill="black"/>
<path d="M249.358 383.093L173.181 398.672L171.45 398.499L104.506 391.748V306.931L186.454 293.083L245.896 300.007L245.913 300.382L245.919 300.566L249.358 383.093Z" fill="#FFF163"/>
<path opacity="0.1" d="M249.359 383.093L173.181 398.672L171.45 398.499V311.547L245.913 300.382L249.359 383.093Z" fill="black"/>
<path opacity="0.05" d="M245.919 300.566L245.896 300.584L171.45 311.546L104.506 306.931L186.454 293.083L245.896 300.007L245.913 300.382L245.919 300.566Z" fill="black"/>
<path d="M333.038 386.555L256.861 402.134L255.13 401.961L188.186 395.21V310.393L270.134 296.545L329.576 303.469L329.593 303.844L329.599 304.028L333.038 386.555Z" fill="#3F3D56"/>
<path opacity="0.1" d="M333.038 386.555L256.861 402.134L255.13 401.961V315.008L329.593 303.844L333.038 386.555Z" fill="black"/>
<path opacity="0.05" d="M329.599 304.028L329.576 304.046L255.13 315.008L188.186 310.393L270.134 296.545L329.576 303.469L329.593 303.844L329.599 304.028Z" fill="black"/>
<path d="M280.522 303.469L204.344 319.047L202.613 318.874L135.669 312.123V227.306L217.618 213.458L277.06 220.382L277.077 220.757L277.083 220.942L280.522 303.469Z" fill="#3F3D56"/>
<path opacity="0.1" d="M280.522 303.469L204.344 319.047L202.613 318.874V231.922L277.077 220.757L280.522 303.469Z" fill="black"/>
<path opacity="0.05" d="M277.083 220.942L277.059 220.959L202.613 231.922L135.669 227.306L217.618 213.458L277.059 220.382L277.077 220.757L277.083 220.942Z" fill="black"/>
<path d="M323.805 307.023L284.048 315.158L283.142 315.066L248.204 311.541V267.274L290.973 260.044L321.998 263.662L322.01 263.858V263.951L323.805 307.023Z" fill="#3F3D56"/>
<path opacity="0.1" d="M323.805 307.023L284.048 315.158L283.142 315.066V269.686L322.01 263.858L323.805 307.023Z" fill="black"/>
<path opacity="0.05" d="M322.01 263.95L321.998 263.962L283.142 269.686L248.204 267.274L290.973 260.044L321.998 263.662L322.01 263.858V263.95Z" fill="black"/>
<path d="M217.041 221.051L177.284 229.181L176.378 229.094L141.44 225.569V181.302L184.209 174.073L215.234 177.69L215.246 177.886V177.979L217.041 221.051Z" fill="#3F3D56"/>
<path opacity="0.1" d="M217.041 221.051L177.284 229.181L176.378 229.094V183.714L215.246 177.886L217.041 221.051Z" fill="black"/>
<path opacity="0.05" d="M215.246 177.979L215.234 177.99L176.378 183.714L141.44 181.302L184.209 174.073L215.234 177.69L215.246 177.886V177.979Z" fill="black"/>
<path d="M286.87 219.32L247.114 227.45L246.208 227.363L211.27 223.838V179.571L254.039 172.342L285.064 175.959L285.075 176.155V176.248L286.87 219.32Z" fill="#FFF163"/>
<path opacity="0.1" d="M286.87 219.32L247.114 227.45L246.208 227.363V181.983L285.075 176.155L286.87 219.32Z" fill="black"/>
<path opacity="0.05" d="M285.075 176.248L285.064 176.259L246.208 181.983L211.27 179.571L254.039 172.342L285.064 175.959L285.075 176.155V176.248Z" fill="black"/>
<path d="M307.646 174.892L267.889 183.022L266.983 182.935L232.045 179.41V135.143L274.815 127.913L305.84 131.531L305.851 131.727V131.819L307.646 174.892Z" fill="#3F3D56"/>
<path opacity="0.1" d="M307.646 174.892L267.889 183.022L266.983 182.935V137.555L305.851 131.727L307.646 174.892Z" fill="black"/>
<path opacity="0.05" d="M305.851 131.819L305.84 131.831L266.983 137.555L232.045 135.143L274.815 127.913L305.84 131.531L305.851 131.727V131.819Z" fill="black"/>
<path d="M334.724 84.3965C334.302 88.147 331.44 91.1704 330.378 94.7824C328.785 100.235 331.532 106.091 335.318 110.361C338.369 113.754 342.063 116.507 346.186 118.462C350.309 120.418 354.779 121.535 359.337 121.751C360.676 121.866 362.025 121.719 363.308 121.318C364.45 120.853 365.479 120.149 366.326 119.253C369.165 116.396 370.695 112.444 371.3 108.457C371.906 104.47 371.676 100.414 371.439 96.3922C371.439 95.5599 371.286 94.7347 370.989 93.9573C370.602 93.2179 370.07 92.5644 369.425 92.0359C367.378 90.1552 365.122 88.5155 362.702 87.1488C361.663 86.5718 360.549 85.9948 359.885 84.9966C359.43 84.2017 359.134 83.3256 359.014 82.4174L358.27 78.6324C358.138 77.541 357.765 76.4926 357.179 75.5628C355.869 73.7972 353.358 73.5548 351.16 73.4683L343.08 73.151C340.57 73.0529 337.269 72.3316 334.816 72.8278C332.508 73.2837 333.287 75.3954 333.702 77.3111C334.303 79.6279 334.646 82.0042 334.724 84.3965V84.3965Z" fill="#FFC0C6"/>
<path opacity="0.1" d="M334.724 84.3965C334.302 88.147 331.44 91.1704 330.378 94.7824C328.785 100.235 331.532 106.091 335.318 110.361C338.369 113.754 342.063 116.507 346.186 118.462C350.309 120.418 354.779 121.535 359.337 121.751C360.676 121.866 362.025 121.719 363.308 121.318C364.45 120.853 365.479 120.149 366.326 119.253C369.165 116.396 370.695 112.444 371.3 108.457C371.906 104.47 371.676 100.414 371.439 96.3922C371.439 95.5599 371.286 94.7347 370.989 93.9573C370.602 93.2179 370.07 92.5644 369.425 92.0359C367.378 90.1552 365.122 88.5155 362.702 87.1488C361.663 86.5718 360.549 85.9948 359.885 84.9966C359.43 84.2017 359.134 83.3256 359.014 82.4174L358.27 78.6324C358.138 77.541 357.765 76.4926 357.179 75.5628C355.869 73.7972 353.358 73.5548 351.16 73.4683L343.08 73.151C340.57 73.0529 337.269 72.3316 334.816 72.8278C332.508 73.2837 333.287 75.3954 333.702 77.3111C334.303 79.6279 334.646 82.0042 334.724 84.3965V84.3965Z" fill="black"/>
<path d="M386.034 253.317L382.606 290.89C381.711 300.745 380.8 310.641 379.045 320.369C378.468 323.721 377.729 327.056 376.887 330.362C374.544 339.542 371.145 348.514 370.048 357.925C370.013 358.196 369.985 358.502 369.956 358.75C369.731 360.827 369.535 362.928 368.802 364.866C368.224 366.303 367.411 367.613 366.816 369.032C365.662 371.871 365.477 375.01 365.333 378.085C361.173 375.737 356.617 374.173 351.892 373.469C349.584 373.129 347.074 372.892 345.544 371.161C343.813 369.28 344.015 366.401 344.304 363.874C345.212 356.027 346.116 348.184 347.016 340.344C347.316 336.971 347.895 333.628 348.747 330.351C349.059 329.26 349.434 328.187 349.815 327.114C350.34 325.637 350.871 324.16 351.269 322.642C351.821 320.204 352.203 317.73 352.412 315.239C353.341 307.346 354.461 299.47 355.442 291.583L355.494 291.167C356.965 279.212 358.085 267.199 357.762 255.157C357.715 253.374 357.64 251.591 357.525 249.803C357.363 247.212 357.127 245.839 359.256 244.217C361.628 242.429 364.75 241.177 367.463 240.005C368.923 239.371 385.001 233.658 385.353 234.916C386.099 237.588 386.487 240.347 386.507 243.121C386.54 246.526 386.382 249.93 386.034 253.317V253.317Z" fill="#605D82"/>
<path opacity="0.1" d="M379.045 320.369C378.468 323.721 377.729 327.056 376.887 330.362C374.544 339.542 371.145 348.514 370.048 357.925C370.013 358.196 369.985 358.502 369.956 358.75C362.788 348.514 356.752 337.505 349.757 327.16C350.282 325.683 350.813 324.206 351.211 322.688C351.785 320.236 352.186 317.747 352.412 315.239C353.341 307.346 354.461 299.47 355.442 291.583L355.494 291.167C355.899 292.841 356.479 294.467 357.225 296.02C361.923 305.563 373.084 310.387 378.543 319.521C378.724 319.805 378.891 320.088 379.045 320.369Z" fill="black"/>
<path d="M320.885 236.463C321.121 244.114 322.345 251.701 323.568 259.26L326.09 274.838C327.469 283.378 328.912 292.085 332.952 299.73C335.976 305.453 340.327 310.335 344.269 315.464C353.953 328.077 361.23 342.369 370.412 355.352C373.084 359.125 376.898 363.21 381.452 362.42C384.441 361.906 386.611 359.414 388.954 357.498C391.724 355.236 395.06 353.58 397.241 350.742C399.423 347.903 399.85 343.194 396.895 341.175C395.885 340.488 394.656 340.229 393.513 339.79C388.937 338.059 385.97 333.582 384.089 329.058C382.208 324.535 381.059 319.682 378.549 315.476C373.089 306.342 361.923 301.518 357.225 291.969C354.593 286.626 354.339 280.429 354.143 274.504L353.63 259.323C353.572 257.661 353.531 255.936 354.207 254.419C356.001 250.38 361.426 249.999 365.824 249.485C370.811 248.903 375.642 247.38 380.061 244.996C382.594 243.629 385.064 241.886 386.409 239.348C387.644 237.04 387.811 234.322 387.956 231.702L389.479 204.186C389.612 201.82 389.727 199.368 388.902 197.152C386.807 191.578 379.767 189.755 373.817 190.021C362.748 190.517 352.533 195.277 342.076 198.497C339.485 199.293 336.882 200.008 334.21 200.545C331.902 201.012 329.016 200.822 326.8 201.572C322.83 202.911 322.928 211.6 322.368 215.2C321.213 222.226 320.716 229.345 320.885 236.463V236.463Z" fill="#605D82"/>
<path d="M379.951 363.585C380.926 364.572 381.244 366.015 381.498 367.376C382.908 374.933 383.642 382.601 383.691 390.289C383.628 391.006 383.77 391.726 384.101 392.366C384.377 392.745 384.75 393.043 385.18 393.231C388.002 394.576 391.274 392.7 393.629 390.641C397.986 386.827 401.673 381.703 401.922 375.916C401.985 374.427 401.818 372.921 402.077 371.45C402.458 369.269 403.734 367.37 404.853 365.466C406.769 362.221 408.317 358.772 409.47 355.184C409.897 353.834 410.186 352.138 409.124 351.197C408.752 350.902 408.327 350.681 407.871 350.545L395.117 345.814C394.009 345.404 391.262 352.461 390.83 353.234C389.762 355.121 388.7 356.188 386.559 356.627C384.418 357.065 381.775 356.431 379.732 357.521C376.269 359.362 377.995 361.618 379.951 363.585Z" fill="#535070"/>
<path d="M360.283 367.942C360.047 367.47 359.717 367.052 359.314 366.713C358.725 366.337 358.054 366.11 357.358 366.049C354.934 365.634 352.06 365.362 350.38 367.168C348.811 368.859 349.082 371.611 347.772 373.515C347.356 374.092 346.791 374.612 346.433 375.246C345.988 376.218 345.79 377.284 345.856 378.351C345.787 381.287 345.717 384.236 345.925 387.167C346.092 389.625 346.502 392.204 348.043 394.131C350.513 397.224 354.968 397.668 358.916 397.864L362.119 398.032C362.999 398.135 363.892 398.052 364.739 397.789C365.263 397.548 365.734 397.204 366.123 396.776C366.512 396.349 366.81 395.848 367.001 395.303C368.669 391.16 366.031 386.7 364.404 382.545C362.528 377.762 362.863 372.459 360.283 367.942Z" fill="#535070"/>
<path d="M333.8 63.2498C333.759 62.8298 333.821 62.4062 333.979 62.015C334.447 61.1899 335.67 61.4381 336.593 61.6458C340.304 62.5805 344.217 61.7323 348.043 61.9516C351.869 62.1708 356.175 64.0807 356.942 67.8311C359.718 65.867 362.11 63.4107 364 60.5841C365.062 58.9974 365.985 57.1799 365.841 55.2758C365.633 52.5293 363.331 50.4752 361.224 48.7327L354.876 43.5398C354.04 42.7729 353.075 42.1595 352.025 41.728C350.559 41.226 348.955 41.4684 347.408 41.4684C342.792 41.4684 337.84 39.3624 333.725 41.4684C331.994 42.3512 330.707 43.8687 329.46 45.3458L323.787 52.0619C323.358 52.4901 323.044 53.0201 322.876 53.6025C322.714 54.4218 323.135 55.2296 323.285 56.0547C323.551 57.5549 322.905 59.1589 323.401 60.6014C324.226 62.9902 327.135 63.3306 328.912 64.7038C329.57 65.2116 330.609 66.9483 331.399 66.9252C332.79 66.8964 333.76 64.3576 333.8 63.2498Z" fill="#3F3D56"/>
<path d="M343.426 83.0579C353.466 83.0579 361.605 74.9206 361.605 64.8827C361.605 54.8448 353.466 46.7075 343.426 46.7075C333.386 46.7075 325.248 54.8448 325.248 64.8827C325.248 74.9206 333.386 83.0579 343.426 83.0579Z" fill="#FFC0C6"/>
<path d="M347.685 104.655C347.069 102.893 345.91 101.373 344.374 100.313C342.837 99.2529 341.004 98.7084 339.138 98.7579C338.603 98.8599 338.049 98.7892 337.557 98.5559C337.278 98.3429 337.054 98.0658 336.905 97.7481C335.803 95.7589 334.915 93.6585 334.256 91.482C333.968 90.5184 333.569 89.3818 332.594 89.1336C331.809 88.9317 331.007 89.4394 330.482 90.0568C330.016 90.7193 329.511 91.3532 328.97 91.9551C326.661 93.9977 322.622 92.134 320.204 94.0092C319.805 94.315 319.476 94.7074 319.049 94.9901C318.634 95.2433 318.185 95.4374 317.716 95.5671C313.022 97.0939 308.421 98.8913 303.935 100.95C305.551 110.667 307.201 120.568 310.987 129.656C312.788 133.983 314.825 138.224 316.268 142.684C319.465 152.568 319.603 163.144 319.644 173.536C319.644 180.644 319.644 187.903 317.335 194.631C316.816 196.154 316.181 197.666 316.037 199.247C315.893 200.828 316.366 202.616 317.664 203.563C318.416 204.058 319.278 204.361 320.175 204.445C324.163 205.022 328.179 203.972 332.103 203.061C342.624 200.626 353.358 199.229 364.063 197.868L382.011 195.56C383.299 195.47 384.559 195.143 385.728 194.596C389.012 192.802 389.323 187.863 387.28 184.724C386.305 183.218 384.926 181.983 384.1 180.391C383.275 178.798 383.212 176.559 384.626 175.457C387.511 173.207 386.646 169.035 386.784 165.389C387.169 155.188 387.117 144.994 386.628 134.808C386.481 132.696 386.447 130.577 386.524 128.461C386.726 124.872 387.615 121.359 388.504 117.868L393.957 96.4037C392.532 94.1535 389.802 92.7225 387.223 92.0763C384.643 91.4301 381.948 91.2397 379.403 90.4492C374.209 88.8336 369.546 84.737 364.104 85.1178C363.691 85.1251 363.285 85.2236 362.915 85.4063C361.692 86.1044 361.882 87.87 361.807 89.2779C361.634 92.3994 359.337 95.0016 356.809 96.8307C354.282 98.6598 351.385 99.9868 349.059 102.07C348.655 102.374 348.323 102.763 348.085 103.21C347.848 103.657 347.711 104.15 347.685 104.655V104.655Z" fill="#3F3D56"/>
<path d="M275.657 125.017C274.453 125.799 273.173 126.459 271.837 126.984C270.567 127.486 269.211 127.884 268.172 128.761C267.658 129.208 267.226 129.741 266.897 130.337C266.282 131.428 265.971 132.664 265.996 133.916C266.022 135.168 266.383 136.39 267.042 137.455C267.701 138.52 268.634 139.389 269.743 139.971C270.853 140.553 272.098 140.826 273.349 140.763C275.017 140.676 276.592 140.001 278.121 139.338L290.945 133.758C293.114 132.818 295.458 131.721 296.485 129.586C296.602 129.387 296.647 129.152 296.612 128.923C296.512 128.671 296.323 128.466 296.081 128.346C293.191 126.466 290.663 124.082 288.619 121.307C288.094 120.591 287.465 118.906 286.703 118.474C283.99 116.968 277.833 123.609 275.657 125.017Z" fill="#FFC0C6"/>
<path d="M412.731 120.487L417.457 125.888C418.473 127.042 419.489 128.196 420.412 129.442C422.684 132.571 424.506 136.003 425.825 139.638C426.852 142.332 427.707 145.206 427.349 148.068C427.109 149.535 426.712 150.972 426.166 152.355C425.3 155.013 424.225 157.598 422.951 160.086C421.888 161.974 420.686 163.782 419.356 165.493C415.695 170.343 411.689 174.922 407.369 179.196C405.754 180.794 405.061 183.385 404.374 185.543C403.076 189.53 399.988 192.64 397.005 195.583C396.045 196.597 394.983 197.51 393.836 198.306C392.119 199.414 390.109 199.985 388.065 199.945C387.174 199.95 386.291 199.767 385.474 199.408C383.431 198.439 382.392 196.079 382.179 193.829C381.99 191.784 382.332 189.725 383.171 187.851C385.884 181.845 392.85 179.242 397.772 174.857C400.658 172.29 402.868 169.058 405.05 165.868C406.527 163.873 407.761 161.71 408.726 159.423C409.822 156.486 409.395 153.012 410.359 150.035C410.763 148.771 411.513 147.635 411.923 146.383C412.333 145.131 412.471 143.648 411.703 142.569C411.128 141.879 410.393 141.34 409.562 140.999C406.417 139.407 402.897 137.353 402.297 133.874C402.056 131.947 402.56 130.001 403.705 128.433C404.844 126.884 406.176 125.488 407.67 124.278C409.037 123.043 411.351 121.676 412.731 120.487Z" fill="#FFC0C6"/>
<path d="M272.622 132.552C271.791 130.867 270.746 129.148 269.061 128.311C268.241 127.958 267.357 127.775 266.464 127.775C265.571 127.775 264.687 127.958 263.867 128.311C262.234 129.017 260.704 129.941 259.319 131.058L255.245 134.064C254.321 134.67 253.504 135.424 252.827 136.297C252.181 137.355 251.753 138.533 251.569 139.759C250.992 142.569 250.524 145.46 250.928 148.304C251.575 152.92 254.345 156.913 257.392 160.421C259.296 162.602 261.651 164.806 264.548 164.904C265.8 164.944 267.191 164.448 267.71 163.312C267.891 162.86 267.987 162.379 267.993 161.892C268.305 156.769 266.47 151.766 264.334 147.098C263.757 145.829 263.134 144.513 263.18 143.123C263.162 142.887 263.223 142.651 263.353 142.453C263.536 142.261 263.782 142.141 264.046 142.113C266.972 141.536 272.016 143.809 274.064 140.561C275.392 138.414 273.568 134.462 272.622 132.552Z" fill="#FFC0C6"/>
<path d="M332.842 57.5318C332.806 57.1114 332.869 56.6885 333.027 56.2971C333.494 55.4662 334.718 55.7201 335.641 55.9278C339.352 56.8625 343.265 56.0143 347.091 56.2336C350.917 56.4528 355.217 58.3627 355.99 62.1131C358.763 60.1459 361.155 57.6901 363.048 54.8661C364.11 53.2736 365.033 51.4561 364.889 49.552C364.681 46.8056 362.373 44.7515 360.272 43.0147L353.924 37.8218C353.09 37.055 352.126 36.4416 351.079 36.01C349.607 35.5081 348.009 35.7504 346.462 35.7504C341.845 35.7504 336.894 33.6444 332.779 35.7504C331.047 36.6332 329.761 38.1507 328.514 39.6278L322.835 46.344C322.408 46.773 322.097 47.3029 321.929 47.8845C321.768 48.7039 322.189 49.5116 322.339 50.3367C322.604 51.8369 321.958 53.441 322.454 54.8777C323.28 57.2722 326.188 57.6126 327.966 58.9858C328.624 59.4936 329.662 61.2303 330.453 61.2073C331.821 61.1784 332.79 58.6396 332.842 57.5318Z" fill="#3F3D56"/>
<path d="M294.234 107.338C293.501 107.813 292.857 108.413 292.33 109.109C291.666 110.119 291.528 111.417 290.956 112.456C289.733 114.729 286.865 115.543 285.081 117.406C284.792 117.661 284.59 118 284.504 118.376C284.493 118.883 284.663 119.378 284.983 119.772L293.605 133.32C296.491 133.573 299.226 131.773 302.1 132.016C303.168 132.102 304.27 132.471 305.297 132.154C306.031 131.827 306.72 131.406 307.346 130.902C309.077 129.817 311.339 129.69 312.776 128.265C314.213 126.84 314.335 124.746 314.317 122.801C314.343 121.113 314.171 119.429 313.804 117.781C312.534 112.588 308.558 108.584 306.065 103.98C304.847 101.735 304.189 100.425 301.621 101.966C299.053 103.506 296.664 105.561 294.234 107.338Z" fill="#3F3D56"/>
<path d="M398.926 100.489C400.547 101.541 402.008 102.819 403.266 104.285C404.576 105.976 405.321 108.053 406.584 109.784C407.848 111.515 409.47 112.761 410.855 114.308C412.961 116.65 414.387 119.501 415.784 122.334C412.365 126.781 408.639 130.984 404.634 134.912C404.187 135.437 403.598 135.822 402.937 136.02C402.489 136.068 402.037 136.004 401.619 135.834C401.202 135.664 400.834 135.393 400.548 135.045C399.925 134.399 399.486 133.591 398.892 132.916C397.491 131.472 395.625 130.57 393.623 130.371C391.637 130.178 389.64 130.149 387.65 130.285C387.213 130.336 386.77 130.262 386.374 130.071C386.08 129.869 385.841 129.595 385.682 129.275C383.373 125.305 384.095 120.32 384.92 115.785L386.807 105.399C387.083 103.416 387.612 101.477 388.383 99.6291C389.098 98.1001 390.691 95.5036 392.665 95.9652C394.638 96.4268 397.258 99.2887 398.926 100.489Z" fill="#3F3D56"/>
<path d="M234.354 176.623L194.597 184.753L193.691 184.666L158.753 181.141V136.874L201.522 129.644L232.548 133.262L232.559 133.458V133.55L234.354 176.623Z" fill="#FFF163"/>
<path opacity="0.1" d="M234.354 176.623L194.597 184.753L193.691 184.666V139.286L232.559 133.458L234.354 176.623Z" fill="black"/>
<path opacity="0.05" d="M232.559 133.55L232.548 133.562L193.691 139.286L158.753 136.874L201.522 129.644L232.548 133.262L232.559 133.458V133.55Z" fill="black"/>
<path d="M255.13 132.771L215.373 140.907L214.467 140.815L179.529 137.289V93.0225L222.298 85.7928L253.323 89.4106L253.335 89.6068V89.6991L255.13 132.771Z" fill="#3F3D56"/>
<path opacity="0.1" d="M255.13 132.771L215.373 140.907L214.467 140.815V95.4344L253.335 89.6068L255.13 132.771Z" fill="black"/>
<path opacity="0.05" d="M253.335 89.6991L253.323 89.7106L214.467 95.4344L179.529 93.0225L222.298 85.7928L253.323 89.4106L253.335 89.6068V89.6991Z" fill="black"/>
</g>
<defs>
<clipPath id="clip0_39:2">
<rect width="548" height="406" fill="white" transform="translate(0.5)"/>
</clipPath>
</defs>
</svg>
