<svg width="683" height="486" viewBox="0 0 683 486" fill="none" xmlns="http://www.w3.org/2000/svg">
<path d="M679.237 451.632C679.163 451.831 679.012 451.993 678.818 452.081C678.625 452.17 678.404 452.178 678.204 452.104L39.5906 214.539C39.3913 214.464 39.2298 214.313 39.1415 214.12C39.0531 213.926 39.0452 213.706 39.1194 213.506C39.1936 213.307 39.3439 213.145 39.5373 213.056C39.7307 212.968 39.9514 212.959 40.1511 213.033L678.765 450.599C678.964 450.674 679.126 450.824 679.214 451.018C679.303 451.211 679.311 451.432 679.237 451.632Z" fill="#F2F2F2"/>
<path d="M339.053 0H186.881C174.944 0.0135032 163.499 4.76015 155.059 13.1986C146.618 21.637 141.87 33.0781 141.856 45.0119V58.7626C141.544 58.6767 141.216 58.6645 140.898 58.7271C140.58 58.7896 140.281 58.9252 140.025 59.123C139.769 59.3209 139.562 59.5756 139.421 59.8671C139.279 60.1586 139.208 60.4789 139.212 60.8028V71.3771C139.208 71.701 139.279 72.0213 139.421 72.3128C139.562 72.6043 139.769 72.859 140.025 73.0569C140.281 73.2548 140.58 73.3903 140.898 73.4529C141.216 73.5154 141.544 73.5032 141.856 73.4173V89.4284C141.544 89.3424 141.216 89.3302 140.898 89.3928C140.58 89.4553 140.281 89.5908 140.025 89.7887C139.768 89.9865 139.562 90.2413 139.42 90.5328C139.279 90.8243 139.208 91.1447 139.212 91.4685V117.904C139.208 118.228 139.279 118.549 139.42 118.84C139.562 119.132 139.768 119.386 140.025 119.584C140.281 119.782 140.58 119.918 140.898 119.98C141.216 120.043 141.544 120.031 141.856 119.945V129.611C141.544 129.525 141.216 129.513 140.898 129.575C140.58 129.638 140.281 129.773 140.025 129.971C139.768 130.169 139.562 130.424 139.42 130.715C139.279 131.007 139.208 131.327 139.212 131.651V158.087C139.208 158.411 139.279 158.731 139.42 159.023C139.562 159.314 139.768 159.569 140.025 159.767C140.281 159.965 140.58 160.1 140.898 160.163C141.216 160.225 141.544 160.213 141.856 160.127V439.295C141.87 451.229 146.618 462.67 155.059 471.108C163.499 479.547 174.944 484.293 186.881 484.307H339.053C350.99 484.293 362.434 479.547 370.875 471.108C379.316 462.67 384.064 451.229 384.077 439.295V45.0119C384.064 33.0781 379.316 21.637 370.875 13.1986C362.434 4.76015 350.99 0.0135032 339.053 0ZM374.558 439.295C374.547 448.706 370.803 457.728 364.147 464.382C357.491 471.036 348.466 474.779 339.053 474.79H186.881C177.468 474.779 168.443 471.036 161.787 464.382C155.131 457.728 151.387 448.706 151.376 439.295V45.0119C151.387 35.6013 155.131 26.5792 161.787 19.925C168.443 13.2707 177.468 9.52763 186.881 9.51695H339.053C348.466 9.52761 357.491 13.2707 364.147 19.925C370.803 26.5792 374.547 35.6013 374.558 45.0119V439.295Z" fill="#3F3D56"/>
<path d="M339.053 480.077H186.881C176.066 480.065 165.697 475.764 158.049 468.119C150.401 460.473 146.1 450.107 146.087 439.295V45.0119C146.1 34.1995 150.401 23.8336 158.049 16.1881C165.697 8.54263 176.066 4.24201 186.881 4.22974H339.053C349.868 4.242 360.237 8.54262 367.885 16.1881C375.532 23.8336 379.834 34.1995 379.846 45.0119V439.295C379.834 450.107 375.532 460.473 367.885 468.119C360.237 475.764 349.868 480.065 339.053 480.077Z" fill="#E6E6E6"/>
<path d="M342.813 473.732H183.121C175.826 473.724 168.833 470.824 163.675 465.667C158.517 460.51 155.615 453.519 155.607 446.227V38.0802C155.615 30.7877 158.517 23.7963 163.675 18.6398C168.833 13.4832 175.826 10.5826 183.12 10.5744H203.946C205.152 10.5757 206.308 11.0552 207.16 11.9075C208.013 12.7598 208.492 13.9153 208.494 15.1206C208.498 18.6813 209.914 22.095 212.433 24.6128C214.951 27.1306 218.366 28.5468 221.928 28.5508H301.891C305.452 28.5469 308.867 27.1306 311.386 24.6128C313.904 22.095 315.321 18.6813 315.325 15.1206C315.326 13.9153 315.806 12.7597 316.658 11.9075C317.511 11.0552 318.666 10.5757 319.872 10.5743H342.813C350.108 10.5826 357.101 13.4832 362.259 18.6397C367.417 23.7963 370.318 30.7877 370.327 38.0801V446.227C370.318 453.519 367.417 460.51 362.259 465.667C357.101 470.824 350.108 473.724 342.813 473.732Z" fill="white"/>
<path d="M269.842 19.8269H250.803C250.242 19.8269 249.704 19.6041 249.307 19.2075C248.91 18.8109 248.688 18.2729 248.688 17.712C248.688 17.1511 248.91 16.6132 249.307 16.2166C249.704 15.82 250.242 15.5972 250.803 15.5972H269.842C270.403 15.5972 270.941 15.82 271.338 16.2166C271.735 16.6132 271.958 17.1511 271.958 17.712C271.958 18.2729 271.735 18.8109 271.338 19.2075C270.941 19.6041 270.403 19.8269 269.842 19.8269Z" fill="white"/>
<path d="M283.064 19.2982C283.648 19.2982 284.122 18.8248 284.122 18.2408C284.122 17.6568 283.648 17.1833 283.064 17.1833C282.48 17.1833 282.006 17.6568 282.006 18.2408C282.006 18.8248 282.48 19.2982 283.064 19.2982Z" fill="white"/>
<path d="M375.471 93.1835H150.252V95.5934H375.471V93.1835Z" fill="#E6E6E6"/>
<path d="M375.471 141.382H150.252V143.792H375.471V141.382Z" fill="#E6E6E6"/>
<path d="M375.471 240.992H150.252V243.402H375.471V240.992Z" fill="#E6E6E6"/>
<path d="M375.471 340.602H150.252V343.012H375.471V340.602Z" fill="#E6E6E6"/>
<path d="M375.471 418.522H150.252V420.932H375.471V418.522Z" fill="#E6E6E6"/>
<path d="M313.812 94.3884H311.401V242.197H313.812V94.3884Z" fill="#E6E6E6"/>
<path d="M201.064 242.154H198.654V419.727H201.064V242.154Z" fill="#E6E6E6"/>
<path d="M370.327 290.863H199.859V293.273H370.327V290.863Z" fill="#E6E6E6"/>
<path d="M314.071 419.727H311.66V473.732H314.071V419.727Z" fill="#E6E6E6"/>
<path d="M312.204 192.174H155.205V194.584H312.204V192.174Z" fill="#E6E6E6"/>
<path d="M187.993 9.05167L185.769 9.98206L221.297 94.8536L223.52 93.9232L187.993 9.05167Z" fill="#E6E6E6"/>
<path d="M297.412 28.5507H295.001V94.3884H297.412V28.5507Z" fill="#E6E6E6"/>
<path d="M359.572 130.939C359.572 152.532 326.177 202.848 316.418 217.091C316.124 217.521 315.729 217.874 315.267 218.117C314.806 218.36 314.292 218.488 313.77 218.488C313.249 218.488 312.735 218.36 312.273 218.117C311.812 217.874 311.417 217.521 311.123 217.091C301.363 202.848 267.969 152.532 267.969 130.939C267.969 118.795 272.795 107.149 281.384 98.5615C289.973 89.9745 301.623 85.1504 313.77 85.1504C325.918 85.1504 337.567 89.9745 346.157 98.5615C354.746 107.149 359.572 118.795 359.572 130.939Z" fill="#FFF163"/>
<path d="M313.77 151.021C326.64 151.021 337.073 140.592 337.073 127.726C337.073 114.86 326.64 104.43 313.77 104.43C300.901 104.43 290.468 114.86 290.468 127.726C290.468 140.592 300.901 151.021 313.77 151.021Z" fill="white"/>
<path d="M312.244 242.89L223.995 419.161L226.151 420.239L314.399 243.968L312.244 242.89Z" fill="#E6E6E6"/>
<path d="M439.337 281.663C440.377 282.222 441.528 282.547 442.707 282.613C443.886 282.68 445.066 282.487 446.163 282.049C447.26 281.61 448.247 280.937 449.055 280.075C449.864 279.214 450.473 278.186 450.841 277.064L479.551 276.568L471.122 264.258L445.151 266.617C443.224 266.124 441.184 266.355 439.416 267.265C437.648 268.176 436.276 269.704 435.559 271.558C434.842 273.413 434.831 275.466 435.527 277.328C436.224 279.191 437.579 280.733 439.337 281.663H439.337Z" fill="#FFB8B8"/>
<path d="M456.572 281.305C456.127 281.305 455.686 281.215 455.277 281.04C454.868 280.865 454.499 280.61 454.191 280.288C453.883 279.967 453.644 279.587 453.487 279.17C453.331 278.754 453.26 278.31 453.279 277.866L453.859 264.705C453.891 263.921 454.202 263.174 454.737 262.601C455.272 262.027 455.995 261.664 456.775 261.578L490.034 257.764L488.92 279.696L456.735 281.3C456.68 281.303 456.626 281.305 456.572 281.305Z" fill="#FFF163"/>
<path d="M497.078 461.704L487.713 464.762L471.46 430.107L485.281 425.595L497.078 461.704Z" fill="#FFB8B8"/>
<path d="M502.431 469.999L472.237 479.858L472.112 479.476C471.608 477.933 471.412 476.306 471.537 474.687C471.662 473.069 472.105 471.491 472.84 470.044C473.574 468.596 474.587 467.308 475.82 466.252C477.053 465.196 478.482 464.393 480.025 463.889L480.026 463.889L498.468 457.867L502.431 469.999Z" fill="#2F2E41"/>
<path d="M524.66 476.197L514.809 476.196L510.122 438.209L524.661 438.21L524.66 476.197Z" fill="#FFB8B8"/>
<path d="M527.172 485.743L495.408 485.742V485.34C495.408 483.717 495.728 482.11 496.349 480.61C496.97 479.111 497.881 477.748 499.029 476.6C500.177 475.453 501.54 474.542 503.04 473.921C504.54 473.3 506.148 472.98 507.771 472.98H507.772L527.173 472.981L527.172 485.743Z" fill="#2F2E41"/>
<path d="M509.697 466.951C508.892 466.95 508.115 466.654 507.513 466.12C506.911 465.585 506.525 464.848 506.429 464.049L493.727 357.896L475.136 387.733L496.95 443.464C497.247 444.234 497.245 445.087 496.945 445.857C496.646 446.626 496.07 447.256 495.33 447.623L476.825 456.676C476.403 456.882 475.941 456.996 475.471 457.01C475.001 457.023 474.533 456.936 474.1 456.753C473.667 456.571 473.277 456.298 472.958 455.953C472.639 455.608 472.397 455.199 472.249 454.752L451.742 392.811C450.197 388.149 449.995 383.147 451.159 378.376L464.42 323.975L464.575 323.89L494.465 307.522L494.636 307.585L529.837 320.429L526.153 390.17L528.83 462.555C528.867 463.415 528.563 464.255 527.985 464.893C527.407 465.531 526.601 465.915 525.741 465.964L509.904 466.945C509.835 466.949 509.766 466.951 509.697 466.951Z" fill="#2F2E41"/>
<path d="M490.307 344.647C485.048 344.647 480.617 343.149 477.845 339.342L477.755 339.22L479.549 320.402L463.595 329.255C463.264 329.439 462.885 329.517 462.509 329.478C462.132 329.439 461.777 329.286 461.491 329.039C461.204 328.791 461.001 328.462 460.907 328.096C460.814 327.729 460.835 327.343 460.969 326.989L480.865 274.165L494.003 231.134C494.654 227.69 496.337 224.525 498.827 222.058C501.318 219.591 504.5 217.939 507.951 217.32C519.654 215.171 526.624 219.119 534.673 227.879C536.62 230.011 538.054 232.559 538.865 235.329C539.676 238.099 539.844 241.018 539.355 243.862L531.74 287.37L533.977 326.379C534.149 327.051 534.103 327.761 533.846 328.405C533.59 329.05 533.136 329.597 532.55 329.968C526.326 333.929 507.244 344.645 490.307 344.647Z" fill="#FFF163"/>
<path d="M516.933 210.804C527.833 210.804 536.668 201.971 536.668 191.074C536.668 180.178 527.833 171.344 516.933 171.344C506.033 171.344 497.197 180.178 497.197 191.074C497.197 201.971 506.033 210.804 516.933 210.804Z" fill="#FFB8B8"/>
<path d="M522.074 331.715C523.147 331.223 524.1 330.501 524.865 329.601C525.629 328.701 526.187 327.644 526.499 326.505C526.811 325.366 526.87 324.173 526.67 323.009C526.471 321.845 526.019 320.739 525.346 319.768L542.271 296.58L527.367 295.873L513.579 318.002C512.023 319.24 510.976 321.007 510.636 322.965C510.296 324.924 510.686 326.94 511.733 328.63C512.78 330.321 514.411 331.568 516.317 332.137C518.223 332.705 520.271 332.555 522.074 331.715Z" fill="#FFB8B8"/>
<path d="M531.24 318.63C530.414 318.747 529.574 318.547 528.89 318.071L517.685 310.259C517.011 309.793 516.536 309.092 516.353 308.294C516.171 307.495 516.293 306.657 516.697 305.945L536.646 270.462L516.582 246.318C515.529 245.05 514.751 243.577 514.298 241.992C513.845 240.407 513.727 238.745 513.951 237.112C514.176 235.479 514.738 233.911 515.602 232.507C516.466 231.103 517.613 229.894 518.969 228.957C520.326 228.021 521.863 227.377 523.482 227.066C525.102 226.756 526.768 226.786 528.375 227.154C529.982 227.523 531.495 228.222 532.817 229.207C534.139 230.192 535.242 231.441 536.054 232.875L558.208 271.965C558.365 272.243 558.447 272.557 558.447 272.877C558.447 273.196 558.364 273.51 558.207 273.788L533.638 316.997C533.412 317.395 533.104 317.741 532.736 318.014C532.368 318.287 531.947 318.48 531.5 318.582C531.414 318.602 531.327 318.617 531.24 318.63Z" fill="#FFF163"/>
<path d="M509.046 188.556C507.092 187.098 504.388 187.325 502.074 186.561C500.696 186.106 499.462 185.297 498.495 184.215C497.529 183.133 496.864 181.816 496.567 180.396C496.27 178.976 496.353 177.503 496.805 176.124C497.258 174.746 498.065 173.51 499.145 172.542C501.645 170.303 505.201 169.795 508.533 169.385C513.096 168.824 517.704 168.262 522.281 168.708C526.857 169.154 531.464 170.7 534.809 173.854C538.497 177.331 540.313 182.508 540.325 187.576C540.197 192.668 538.799 197.648 536.258 202.063C535.472 203.74 534.288 205.2 532.809 206.316C531.269 207.331 529.1 207.597 527.617 206.5C526.336 205.552 525.867 203.891 525.288 202.406C524.709 200.921 523.721 199.339 522.144 199.11C520.112 198.815 518.562 200.881 516.623 201.556C513.912 202.502 510.9 200.411 509.794 197.762C508.688 195.112 508.979 192.115 509.29 189.261" fill="#2F2E41"/>
<path d="M683 485.197C682.999 485.409 682.915 485.613 682.764 485.764C682.613 485.914 682.409 485.999 682.196 486H0.803529C0.59042 486 0.386039 485.915 0.235348 485.765C0.0846567 485.614 0 485.41 0 485.197C0 484.984 0.0846567 484.779 0.235348 484.629C0.386039 484.478 0.59042 484.393 0.803529 484.393H682.196C682.409 484.394 682.613 484.479 682.764 484.629C682.915 484.78 682.999 484.984 683 485.197Z" fill="#CCCCCC"/>
<path d="M313.77 252.238C319.539 252.238 324.216 247.563 324.216 241.795C324.216 236.028 319.539 231.352 313.77 231.352C308.001 231.352 303.324 236.028 303.324 241.795C303.324 247.563 308.001 252.238 313.77 252.238Z" fill="#FFF163"/>
<path d="M460.832 127.614C456.469 133.427 437.314 140.228 431.81 142.091C431.643 142.148 431.466 142.163 431.293 142.135C431.119 142.108 430.955 142.038 430.815 141.933C430.674 141.827 430.562 141.689 430.487 141.531C430.412 141.372 430.376 141.197 430.384 141.022C430.635 135.217 431.811 114.93 436.174 109.117C438.627 105.848 442.279 103.688 446.326 103.111C450.373 102.533 454.484 103.587 457.754 106.04C461.024 108.493 463.185 112.144 463.762 116.19C464.339 120.236 463.285 124.345 460.832 127.614Z" fill="#F2F2F2"/>
<path d="M449.152 125.341C453.483 125.341 456.994 121.831 456.994 117.501C456.994 113.171 453.483 109.661 449.152 109.661C444.821 109.661 441.31 113.171 441.31 117.501C441.31 121.831 444.821 125.341 449.152 125.341Z" fill="white"/>
<path d="M426.106 151.721C428.047 151.721 429.621 150.148 429.621 148.207C429.621 146.266 428.047 144.692 426.106 144.692C424.164 144.692 422.59 146.266 422.59 148.207C422.59 150.148 424.164 151.721 426.106 151.721Z" fill="#F2F2F2"/>
<path d="M78.4863 287.054C84.9059 296.859 84.7007 329.629 84.5037 338.996C84.498 339.279 84.4233 339.557 84.2861 339.804C84.149 340.052 83.9535 340.262 83.7166 340.418C83.4797 340.573 83.2085 340.667 82.9266 340.694C82.6447 340.721 82.3606 340.678 82.0989 340.57C73.433 337.002 43.3104 324.077 36.8908 314.272C35.1007 311.541 33.8662 308.485 33.258 305.277C32.6498 302.07 32.6798 298.774 33.3462 295.578C34.0127 292.382 35.3025 289.349 37.142 286.651C38.9815 283.954 41.3347 281.645 44.067 279.857C46.7993 278.069 49.8573 276.837 53.0661 276.231C56.2749 275.625 59.5717 275.658 62.7682 276.326C65.9646 276.994 68.9979 278.286 71.6949 280.126C74.3919 281.967 76.6997 284.321 78.4863 287.054Z" fill="#F2F2F2"/>
<path d="M56.7333 311.846C63.7177 311.846 69.3797 306.186 69.3797 299.204C69.3797 292.221 63.7177 286.561 56.7333 286.561C49.7489 286.561 44.0869 292.221 44.0869 299.204C44.0869 306.186 49.7489 311.846 56.7333 311.846Z" fill="white"/>
<path d="M90.6459 356.668C93.7768 356.668 96.3149 354.131 96.3149 351.001C96.3149 347.871 93.7768 345.333 90.6459 345.333C87.5149 345.333 84.9768 347.871 84.9768 351.001C84.9768 354.131 87.5149 356.668 90.6459 356.668Z" fill="#F2F2F2"/>
</svg>
