<svg width="682" height="456" viewBox="0 0 682 456" fill="none" xmlns="http://www.w3.org/2000/svg">
<g clip-path="url(#clip0_12:800)">
<path d="M615.46 80.604H599.276C600.021 82.4297 600.305 84.4105 600.104 86.3719C599.902 88.3333 599.222 90.2151 598.123 91.8516C597.024 93.4881 595.539 94.829 593.8 95.7562C592.061 96.6834 590.121 97.1684 588.15 97.1686H517.121C515.15 97.1684 513.21 96.6834 511.471 95.7562C509.732 94.829 508.247 93.4881 507.148 91.8516C506.049 90.2151 505.369 88.3333 505.168 86.3719C504.967 84.4105 505.251 82.4297 505.995 80.604H490.879C484.171 80.604 477.737 83.2703 472.993 88.0164C468.25 92.7625 465.585 99.1996 465.585 105.912V426.663C465.585 433.375 468.25 439.812 472.993 444.558C477.737 449.305 484.171 451.971 490.879 451.971H615.46C622.169 451.971 628.602 449.305 633.346 444.558C638.089 439.812 640.754 433.375 640.754 426.663V105.912C640.754 99.1996 638.089 92.7625 633.346 88.0164C628.602 83.2703 622.169 80.604 615.46 80.604Z" fill="#F0F0F0"/>
<path d="M615.606 203.441C612.445 194.355 607.341 186.068 600.65 179.159C593.959 172.249 585.842 166.883 576.866 163.434C567.889 159.986 558.268 158.538 548.675 159.192C539.082 159.846 529.746 162.585 521.32 167.22C512.894 171.854 505.579 178.272 499.886 186.026C494.194 193.779 490.26 202.682 488.359 212.113C486.459 221.544 486.637 231.276 488.882 240.631C491.127 249.986 495.385 258.738 501.358 266.278C501.951 267.026 502.568 267.774 503.198 268.498C503.245 268.545 503.28 268.593 503.328 268.64C504.875 270.424 506.519 272.12 508.253 273.722C508.704 274.138 509.179 274.565 509.653 274.969C510.555 275.777 511.481 276.548 512.442 277.285C512.822 277.581 513.19 277.878 513.582 278.163C515.1 279.315 516.679 280.384 518.305 281.405L518.376 281.44C518.838 281.726 519.314 282.01 519.788 282.284C520.642 282.794 521.521 283.281 522.399 283.744L522.957 284.029C524.239 284.694 525.544 285.323 526.885 285.905C527.158 286.024 527.455 286.142 527.728 286.261C527.751 286.273 527.763 286.273 527.787 286.285C528.416 286.546 529.045 286.796 529.686 287.033C531.791 287.837 533.938 288.527 536.118 289.099C541.681 290.583 547.414 291.333 553.171 291.331C555.272 291.331 557.349 291.236 559.402 291.035C564.093 290.601 568.724 289.666 573.215 288.244C573.227 288.244 573.239 288.232 573.251 288.232C576.088 287.328 578.86 286.229 581.546 284.943C581.558 284.931 581.582 284.931 581.594 284.92C582.199 284.635 582.781 284.326 583.374 284.029C583.469 283.981 583.564 283.934 583.659 283.886C584.133 283.637 584.608 283.388 585.083 283.127C586.27 282.473 587.433 281.785 588.583 281.049C588.904 280.859 589.213 280.657 589.533 280.443C589.984 280.146 590.435 279.838 590.874 279.517C591.455 279.113 592.037 278.698 592.607 278.27C592.785 278.14 592.975 278.009 593.153 277.867C604.271 269.423 612.432 257.674 616.465 244.304C620.499 230.934 620.198 216.63 615.606 203.441L615.606 203.441Z" fill="white"/>
<path d="M587.433 275.112C581.81 272.147 575.941 269.676 569.892 267.726L569.121 259.189L537.839 255.817L533.863 266.729L522.636 270.944C522.235 271.097 521.852 271.296 521.497 271.538H521.485C520.858 271.961 520.325 272.509 519.917 273.145C519.509 273.782 519.235 274.496 519.111 275.242C518.992 275.985 519.02 276.743 519.195 277.475L519.788 279.909C520.642 280.419 521.521 280.906 522.399 281.369L522.957 281.654C524.239 282.319 525.544 282.949 526.885 283.53C527.158 283.649 527.455 283.768 527.727 283.887C527.751 283.898 527.763 283.898 527.787 283.91C528.416 284.172 529.045 284.421 529.686 284.658C531.791 285.463 533.938 286.153 536.118 286.724C541.681 288.208 547.414 288.958 553.171 288.957C555.272 288.957 557.349 288.862 559.402 288.66C564.093 288.227 568.724 287.291 573.216 285.87C573.227 285.87 573.239 285.858 573.251 285.858C576.088 284.953 578.86 283.854 581.546 282.569C581.558 282.557 581.582 282.557 581.594 282.545C582.199 282.26 582.781 281.951 583.374 281.654C583.469 281.607 583.564 281.559 583.659 281.512C584.133 281.262 584.608 281.013 585.083 280.752C586.27 280.099 587.433 279.41 588.584 278.674C588.904 278.484 589.213 278.282 589.533 278.068C589.984 277.772 590.435 277.463 590.874 277.142C589.77 276.43 588.619 275.753 587.433 275.112Z" fill="#E4E4E4"/>
<path d="M528.724 280.372L526.766 271.526H521.651C521.6 271.527 521.548 271.531 521.497 271.538H521.485C519.647 271.693 517.877 272.306 516.335 273.319C515.289 273.987 514.359 274.821 513.582 275.789C515.1 276.94 516.679 278.009 518.305 279.03L518.376 279.066C518.839 279.351 519.314 279.636 519.788 279.909C520.642 280.419 521.521 280.906 522.399 281.369L522.957 281.654C524.239 282.319 525.544 282.949 526.885 283.53C527.158 283.649 527.455 283.768 527.728 283.887C527.751 283.898 527.763 283.898 527.787 283.91C528.416 284.172 529.045 284.421 529.686 284.658L528.724 280.372Z" fill="#E4E4E4"/>
<path d="M552.252 250.419C564.695 250.419 574.782 240.327 574.782 227.877C574.782 215.428 564.695 205.335 552.252 205.335C539.809 205.335 529.722 215.428 529.722 227.877C529.722 240.327 539.809 250.419 552.252 250.419Z" fill="#A0616A"/>
<path d="M537.126 216.898C539.458 219.659 543.405 220.438 547.046 220.758C554.44 221.407 565.192 220.354 572.418 218.685C572.934 223.686 571.528 229.079 574.472 233.193C575.852 228.212 576.655 223.089 576.864 217.925C577.084 215.709 576.795 213.472 576.019 211.385C575.604 210.339 574.904 209.431 573.999 208.763C573.093 208.095 572.019 207.695 570.898 207.608C572.576 206.334 574.542 205.493 576.623 205.159L569.469 201.562L571.306 199.675L558.355 198.882L562.106 196.498C556.46 195.721 550.748 195.541 545.065 195.959C542.425 196.154 539.666 196.526 537.528 198.056C535.389 199.586 534.154 202.626 535.481 204.873C533.819 205.146 532.254 205.839 530.935 206.886C529.615 207.934 528.585 209.301 527.942 210.858C527.128 213.334 526.931 215.97 527.369 218.539C527.857 222.661 528.814 226.712 530.222 230.616L537.126 216.898Z" fill="#2F2E41"/>
<path d="M615.606 203.441C612.445 194.355 607.341 186.068 600.65 179.159C593.959 172.249 585.842 166.883 576.866 163.434C567.889 159.986 558.268 158.538 548.675 159.192C539.082 159.846 529.746 162.585 521.32 167.22C512.894 171.854 505.579 178.272 499.886 186.026C494.194 193.779 490.26 202.682 488.359 212.113C486.459 221.544 486.637 231.276 488.882 240.631C491.127 249.986 495.385 258.738 501.358 266.278C501.951 267.026 502.568 267.774 503.198 268.498C503.245 268.545 503.28 268.593 503.328 268.64C504.875 270.424 506.519 272.12 508.253 273.722C508.704 274.138 509.179 274.565 509.653 274.969C510.555 275.777 511.481 276.548 512.442 277.285C512.822 277.581 513.19 277.878 513.582 278.163C515.1 279.315 516.679 280.384 518.305 281.405L518.376 281.44C518.838 281.726 519.314 282.01 519.788 282.284C520.642 282.794 521.521 283.281 522.399 283.744L522.957 284.029C524.239 284.694 525.544 285.323 526.885 285.905C527.158 286.024 527.455 286.142 527.728 286.261C527.751 286.273 527.763 286.273 527.787 286.285C528.416 286.546 529.045 286.796 529.686 287.033C531.791 287.837 533.938 288.527 536.118 289.099C541.681 290.583 547.414 291.333 553.171 291.331C555.272 291.331 557.349 291.236 559.402 291.035C564.093 290.601 568.724 289.666 573.215 288.244C573.227 288.244 573.239 288.232 573.251 288.232C576.088 287.328 578.86 286.229 581.546 284.943C581.558 284.931 581.582 284.931 581.594 284.92C582.199 284.635 582.781 284.326 583.374 284.029C583.469 283.981 583.564 283.934 583.659 283.886C584.133 283.637 584.608 283.388 585.083 283.127C586.27 282.473 587.433 281.785 588.583 281.049C588.904 280.859 589.213 280.657 589.533 280.443C589.984 280.146 590.435 279.838 590.874 279.517C591.455 279.113 592.037 278.698 592.607 278.27C592.785 278.14 592.975 278.009 593.153 277.867C604.271 269.423 612.432 257.674 616.465 244.304C620.499 230.934 620.198 216.63 615.606 203.441L615.606 203.441ZM590.969 274.981C590.577 275.29 590.174 275.587 589.77 275.86C589.379 276.157 588.987 276.442 588.583 276.703C588.239 276.952 587.895 277.19 587.539 277.415L587.433 277.486C587.171 277.665 586.911 277.831 586.649 277.997C585.664 278.614 584.667 279.208 583.659 279.778C583.552 279.837 583.445 279.897 583.338 279.956C582.887 280.206 582.437 280.443 581.986 280.681C581.926 280.716 581.855 280.74 581.796 280.776L581.724 280.811C581.155 281.108 580.573 281.393 579.992 281.666C577.748 282.747 575.437 283.683 573.073 284.468C572.764 284.575 572.456 284.682 572.148 284.777C567.896 286.13 563.512 287.022 559.07 287.437C557.123 287.615 555.153 287.71 553.171 287.71C547.726 287.721 542.303 287.01 537.044 285.596C534.345 284.891 531.7 283.995 529.128 282.913C528.997 282.853 528.855 282.806 528.724 282.747C528.582 282.687 528.451 282.64 528.321 282.58C528.178 282.521 528.048 282.462 527.906 282.39C526.79 281.903 525.686 281.369 524.607 280.811L524.085 280.538C522.767 279.849 521.473 279.113 520.216 278.329C519.848 278.104 519.468 277.866 519.112 277.617C519.017 277.558 518.934 277.498 518.839 277.439C517.996 276.881 517.154 276.299 516.335 275.694C515.777 275.278 515.219 274.862 514.673 274.435C513.76 273.746 512.881 273.01 512.027 272.25C511.576 271.87 511.137 271.455 510.71 271.063C509.027 269.508 507.434 267.859 505.939 266.123C505.441 265.553 504.954 264.983 504.491 264.39C504.386 264.272 504.287 264.149 504.194 264.021C496.484 254.286 491.846 242.474 490.872 230.091C489.899 217.708 492.633 205.315 498.728 194.493C504.822 183.671 514 174.911 525.09 169.329C536.181 163.747 548.682 161.597 560.999 163.153C573.316 164.708 584.891 169.899 594.247 178.064C603.604 186.228 610.318 196.995 613.533 208.993C616.748 220.99 616.319 233.674 612.301 245.427C608.282 257.18 600.856 267.468 590.969 274.981H590.969Z" fill="#E4E4E4"/>
<path d="M598.914 343.189H507.619C504.715 343.187 501.931 342.03 499.879 339.975C497.827 337.92 496.674 335.133 496.674 332.228C496.674 329.323 497.827 326.536 499.879 324.481C501.931 322.425 504.715 321.269 507.619 321.267H598.914C601.82 321.267 604.606 322.421 606.661 324.477C608.715 326.533 609.87 329.321 609.87 332.228C609.87 335.135 608.715 337.923 606.661 339.979C604.606 342.034 601.82 343.189 598.914 343.189Z" fill="white"/>
<path d="M598.914 376.987H507.619C504.715 376.984 501.931 375.828 499.879 373.773C497.827 371.717 496.674 368.931 496.674 366.026C496.674 363.12 497.827 360.334 499.879 358.278C501.931 356.223 504.715 355.067 507.619 355.064H598.914C601.82 355.064 604.606 356.219 606.661 358.275C608.715 360.33 609.87 363.118 609.87 366.026C609.87 368.933 608.715 371.721 606.661 373.776C604.606 375.832 601.82 376.987 598.914 376.987Z" fill="white"/>
<path d="M209.629 82.4788H193.445C194.189 84.3045 194.473 86.2852 194.272 88.2466C194.071 90.208 193.391 92.0899 192.291 93.7264C191.192 95.3629 189.708 96.7037 187.969 97.6309C186.229 98.5581 184.289 99.0432 182.318 99.0433H111.289C109.319 99.0432 107.378 98.5582 105.639 97.631C103.9 96.7038 102.415 95.3629 101.316 93.7264C100.217 92.0899 99.5369 90.2081 99.3358 88.2466C99.1348 86.2852 99.4189 84.3044 100.163 82.4788H85.0472C78.3388 82.4788 71.9052 85.1451 67.1617 89.8912C62.4181 94.6373 59.7532 101.074 59.7532 107.786V428.538C59.7532 435.25 62.4181 441.687 67.1617 446.433C71.9052 451.179 78.3388 453.846 85.0472 453.846H209.629C216.337 453.846 222.771 451.179 227.514 446.433C232.258 441.687 234.923 435.25 234.923 428.538V107.786C234.923 101.074 232.258 94.6373 227.514 89.8912C222.771 85.1451 216.337 82.4788 209.629 82.4788Z" fill="#F0F0F0"/>
<path d="M209.774 205.316C206.613 196.23 201.509 187.943 194.818 181.033C188.127 174.124 180.01 168.758 171.034 165.309C162.057 161.861 152.437 160.413 142.843 161.066C133.25 161.72 123.915 164.46 115.488 169.094C107.062 173.729 99.7473 180.147 94.0546 187.9C88.3619 195.654 84.4281 204.557 82.5276 213.988C80.6271 223.418 80.8055 233.151 83.0505 242.506C85.2955 251.861 89.553 260.613 95.526 268.152C96.1194 268.9 96.7366 269.648 97.3658 270.373C97.4134 270.42 97.4487 270.468 97.4962 270.515C99.0431 272.299 100.687 273.995 102.421 275.597C102.872 276.013 103.347 276.44 103.822 276.844C104.723 277.651 105.649 278.423 106.611 279.159C106.99 279.456 107.358 279.753 107.75 280.038C109.269 281.19 110.847 282.258 112.473 283.28L112.544 283.315C113.007 283.6 113.482 283.885 113.956 284.158C114.811 284.669 115.689 285.156 116.567 285.619L117.125 285.904C118.407 286.569 119.712 287.198 121.053 287.78C121.326 287.899 121.623 288.017 121.896 288.136C121.919 288.148 121.931 288.148 121.955 288.16C122.584 288.421 123.213 288.67 123.854 288.908C125.959 289.712 128.106 290.402 130.286 290.974C135.849 292.457 141.582 293.208 147.339 293.206C149.44 293.206 151.517 293.111 153.57 292.909C158.261 292.476 162.892 291.54 167.384 290.119C167.395 290.119 167.407 290.107 167.419 290.107C170.256 289.203 173.028 288.104 175.715 286.818C175.726 286.806 175.75 286.806 175.762 286.794C176.367 286.509 176.949 286.201 177.542 285.904C177.637 285.856 177.732 285.809 177.827 285.761C178.301 285.512 178.777 285.263 179.251 285.001C180.438 284.348 181.601 283.66 182.752 282.923C183.072 282.733 183.381 282.532 183.701 282.318C184.152 282.021 184.603 281.712 185.042 281.392C185.624 280.988 186.205 280.572 186.775 280.145C186.953 280.014 187.143 279.884 187.321 279.741C198.439 271.298 206.6 259.549 210.633 246.179C214.667 232.809 214.366 218.504 209.774 205.316L209.774 205.316Z" fill="white"/>
<path d="M193.082 345.064H101.787C98.8819 345.064 96.0953 343.909 94.0408 341.853C91.9863 339.798 90.832 337.01 90.832 334.103C90.832 331.196 91.9863 328.408 94.0408 326.352C96.0953 324.296 98.8819 323.141 101.787 323.141H193.082C195.986 323.144 198.77 324.3 200.823 326.355C202.875 328.411 204.028 331.197 204.028 334.103C204.028 337.008 202.875 339.795 200.823 341.85C198.77 343.905 195.986 345.061 193.082 345.064Z" fill="white"/>
<path d="M193.082 378.861H101.787C100.348 378.863 98.9222 378.58 97.5919 378.03C96.2615 377.48 95.0526 376.672 94.0342 375.654C93.0158 374.636 92.208 373.428 91.6568 372.097C91.1056 370.767 90.8219 369.34 90.8219 367.9C90.8219 366.46 91.1056 365.034 91.6568 363.703C92.208 362.372 93.0158 361.164 94.0342 360.146C95.0526 359.128 96.2615 358.32 97.5919 357.77C98.9222 357.22 100.348 356.937 101.787 356.939H193.082C195.988 356.939 198.775 358.094 200.829 360.149C202.884 362.205 204.038 364.993 204.038 367.9C204.038 370.807 202.884 373.595 200.829 375.651C198.775 377.706 195.988 378.861 193.082 378.861Z" fill="white"/>
<path d="M124.043 242.536L127.883 255.844L176.953 254.978L176.523 230.593C176.183 211.292 162.549 194.645 143.259 194.986C123.968 195.326 111.702 211.643 112.043 230.945L114.845 256.074L122.846 255.933L124.043 242.536Z" fill="#2F2E41"/>
<path d="M145.452 251.842C157.611 251.842 167.468 241.979 167.468 229.813C167.468 217.648 157.611 207.785 145.452 207.785C133.292 207.785 123.435 217.648 123.435 229.813C123.435 241.979 133.292 251.842 145.452 251.842Z" fill="#FFB6B6"/>
<path d="M189.275 264.166L188.776 273.431C178.209 284.428 163.796 290.901 148.561 291.491C133.326 292.082 118.455 286.744 107.07 276.598C106.561 276.15 106.063 275.681 105.574 275.203C108.627 272.169 117.053 264.675 126.405 263.982L168.576 261.325C168.576 261.325 184.553 259.451 189.275 264.166Z" fill="#E4E4E4"/>
<path d="M169.553 214.346C169.524 212.659 168.996 211.019 168.037 209.632C167.935 209.489 167.833 209.357 167.731 209.224C166.916 208.183 165.87 207.344 164.677 206.773C163.484 206.203 162.174 205.916 160.852 205.935L145.028 206.221L129.214 206.495C126.948 206.541 124.793 207.482 123.22 209.114C121.646 210.745 120.783 212.934 120.818 215.201L124.584 222.786L126.751 227.144L127.107 226.941C140.794 219.243 146.391 219.141 164.506 226.299L164.872 226.442L166.307 222.766L169.563 214.427L169.553 214.346Z" fill="#2F2E41"/>
<path d="M194.27 270.399C192.998 272.028 191.85 271.998 190.415 273.485C186.792 277.262 181.011 280.497 176.493 283.196L175.506 265.5L189.275 264.166C191.567 265.652 193.318 267.838 194.27 270.399Z" fill="#E4E4E4"/>
<path d="M209.774 205.316C206.613 196.23 201.509 187.943 194.818 181.033C188.127 174.124 180.01 168.758 171.034 165.309C162.057 161.861 152.437 160.413 142.843 161.066C133.25 161.72 123.915 164.46 115.488 169.094C107.062 173.729 99.7473 180.147 94.0546 187.9C88.3619 195.654 84.4281 204.557 82.5276 213.988C80.6271 223.418 80.8055 233.151 83.0505 242.506C85.2955 251.861 89.553 260.613 95.526 268.152C96.1194 268.9 96.7366 269.648 97.3658 270.373C97.4134 270.42 97.4487 270.468 97.4962 270.515C99.0431 272.299 100.687 273.995 102.421 275.597C102.872 276.013 103.347 276.44 103.822 276.844C104.723 277.651 105.649 278.423 106.611 279.159C106.99 279.456 107.358 279.753 107.75 280.038C109.269 281.19 110.847 282.258 112.473 283.28L112.544 283.315C113.007 283.6 113.482 283.885 113.956 284.158C114.811 284.669 115.689 285.156 116.567 285.619L117.125 285.904C118.407 286.569 119.712 287.198 121.053 287.78C121.326 287.899 121.623 288.017 121.896 288.136C121.919 288.148 121.931 288.148 121.955 288.16C122.584 288.421 123.213 288.67 123.854 288.908C125.959 289.712 128.106 290.402 130.286 290.974C135.849 292.457 141.582 293.208 147.339 293.206C149.44 293.206 151.517 293.111 153.57 292.909C158.261 292.476 162.892 291.54 167.384 290.119C167.395 290.119 167.407 290.107 167.419 290.107C170.256 289.203 173.028 288.104 175.715 286.818C175.726 286.806 175.75 286.806 175.762 286.794C176.367 286.509 176.949 286.201 177.542 285.904C177.637 285.856 177.732 285.809 177.827 285.761C178.301 285.512 178.777 285.263 179.251 285.001C180.438 284.348 181.601 283.66 182.752 282.923C183.072 282.733 183.381 282.532 183.701 282.318C184.152 282.021 184.603 281.712 185.042 281.392C185.624 280.988 186.205 280.572 186.775 280.145C186.953 280.014 187.143 279.884 187.321 279.741C198.439 271.298 206.6 259.549 210.633 246.179C214.667 232.809 214.366 218.504 209.774 205.316L209.774 205.316ZM185.137 276.856C184.746 277.164 184.342 277.461 183.938 277.734C183.547 278.031 183.156 278.316 182.752 278.577C182.408 278.827 182.063 279.064 181.708 279.29L181.601 279.361C181.34 279.539 181.079 279.705 180.818 279.872C179.832 280.489 178.836 281.083 177.827 281.653C177.72 281.712 177.613 281.772 177.506 281.831C177.056 282.08 176.605 282.318 176.154 282.555C176.094 282.591 176.023 282.615 175.964 282.65L175.893 282.686C175.323 282.983 174.741 283.268 174.16 283.541C171.916 284.622 169.605 285.558 167.241 286.343C166.932 286.45 166.624 286.557 166.316 286.652C162.064 288.005 157.68 288.896 153.238 289.311C151.291 289.49 149.321 289.584 147.34 289.584C141.894 289.596 136.471 288.885 131.212 287.471C128.513 286.766 125.868 285.869 123.296 284.787C123.165 284.728 123.023 284.681 122.892 284.621C122.75 284.562 122.62 284.514 122.489 284.455C122.347 284.396 122.216 284.336 122.074 284.265C120.958 283.778 119.854 283.244 118.775 282.686L118.253 282.413C116.935 281.724 115.642 280.988 114.384 280.204C114.016 279.979 113.636 279.741 113.28 279.492C113.185 279.432 113.102 279.373 113.007 279.314C112.164 278.756 111.322 278.174 110.503 277.568C109.946 277.153 109.387 276.737 108.842 276.31C107.928 275.621 107.049 274.885 106.195 274.125C105.744 273.745 105.305 273.329 104.878 272.937C103.195 271.383 101.602 269.734 100.107 267.998C99.6089 267.428 99.1222 266.858 98.6592 266.264C98.554 266.147 98.4549 266.024 98.3625 265.896C90.6519 256.161 86.014 244.349 85.0404 231.965C84.0667 219.582 86.8014 207.19 92.8958 196.368C98.9901 185.546 108.168 176.786 119.259 171.204C130.349 165.622 142.85 163.472 155.167 165.027C167.484 166.583 179.059 171.774 188.415 179.938C197.772 188.102 204.486 198.87 207.701 210.868C210.917 222.865 210.488 235.549 206.469 247.302C202.45 259.054 195.024 269.343 185.137 276.856Z" fill="#E4E4E4"/>
<path d="M405.485 259.972C406.413 260.159 407.371 260.14 408.292 259.916C409.212 259.692 410.072 259.269 410.812 258.677C411.551 258.085 412.151 257.337 412.571 256.487C412.99 255.638 413.218 254.706 413.239 253.759L462.191 207.659L451.177 198.868L406.439 247.063C404.845 247.134 403.334 247.787 402.19 248.899C401.045 250.01 400.349 251.503 400.231 253.094C400.113 254.685 400.583 256.264 401.551 257.532C402.52 258.8 403.919 259.668 405.485 259.972H405.485Z" fill="#FFB7B7"/>
<path d="M455.255 215.11L445.731 203.943C445.46 203.626 445.261 203.253 445.147 202.851C445.032 202.45 445.006 202.028 445.07 201.615C445.133 201.202 445.285 200.808 445.514 200.459C445.744 200.11 446.046 199.815 446.399 199.593L458.798 191.827C460.43 190.449 462.543 189.774 464.672 189.952C466.801 190.129 468.772 191.144 470.154 192.774C471.536 194.404 472.215 196.516 472.043 198.647C471.871 200.777 470.861 202.752 469.236 204.139L459.654 215.134C459.379 215.449 459.04 215.701 458.66 215.873C458.279 216.045 457.866 216.132 457.449 216.13C457.031 216.128 456.619 216.036 456.241 215.86C455.862 215.684 455.526 215.428 455.255 215.11Z" fill="#3F3D56"/>
<path d="M429.645 442.59L417.676 442.59L411.982 396.399L429.647 396.4L429.645 442.59Z" fill="#FFB7B7"/>
<path d="M432.697 454.198L394.105 454.197V453.708C394.105 449.722 395.688 445.9 398.505 443.081C401.322 440.263 405.142 438.679 409.126 438.679H409.127L432.698 438.68L432.697 454.198Z" fill="#2F2E41"/>
<path d="M525.319 442.59L513.35 442.59L507.656 396.399L525.321 396.4L525.319 442.59Z" fill="#FFB7B7"/>
<path d="M528.371 454.198L489.778 454.197V453.708C489.779 449.722 491.361 445.9 494.178 443.081C496.995 440.263 500.816 438.679 504.8 438.679H504.801L528.372 438.68L528.371 454.198Z" fill="#2F2E41"/>
<path d="M493.124 239.595L505.189 194.997L489.537 186.195H467.691L459.194 195.29C459.194 195.29 444.998 205.173 448.434 216.122L453.977 241.062L445.499 280.672L402.784 339.941L392.673 398.158L432.476 408.598L475.517 323.803L496.385 417.694L535.207 415.74L521.83 301.898C521.83 301.898 518.016 267.218 498.027 245.564L493.124 239.595Z" fill="#2F2E41"/>
<path d="M518.04 279.055C518.712 278.388 519.231 277.582 519.559 276.692C519.886 275.803 520.015 274.853 519.936 273.909C519.857 272.964 519.572 272.049 519.101 271.227C518.629 270.404 517.984 269.696 517.21 269.15L507.849 205.964L494.413 210.209L507.862 271.064C507.033 272.426 506.731 274.046 507.015 275.616C507.299 277.186 508.149 278.597 509.403 279.582C510.658 280.567 512.23 281.058 513.822 280.961C515.413 280.864 516.914 280.186 518.04 279.055V279.055Z" fill="#FFB7B7"/>
<path d="M510.162 215.881L495.587 217.562C495.172 217.61 494.752 217.568 494.355 217.438C493.958 217.309 493.594 217.096 493.286 216.813C492.979 216.53 492.737 216.184 492.575 215.799C492.414 215.414 492.337 214.998 492.351 214.581L492.823 199.953C492.589 197.829 493.208 195.698 494.542 194.029C495.877 192.36 497.819 191.289 499.942 191.05C502.065 190.812 504.195 191.425 505.867 192.756C507.538 194.087 508.614 196.028 508.857 198.151L512.635 212.241C512.743 212.644 512.763 213.066 512.694 213.478C512.624 213.89 512.467 214.282 512.232 214.627C511.997 214.973 511.691 215.263 511.334 215.48C510.976 215.696 510.577 215.833 510.162 215.881V215.881Z" fill="#3F3D56"/>
<path d="M454.183 173.512V154.721C454.187 148.046 456.841 141.645 461.56 136.926C466.279 132.207 472.678 129.556 479.35 129.556C486.022 129.556 492.42 132.207 497.14 136.926C501.859 141.645 504.512 148.046 504.516 154.721V173.512C504.515 174.409 504.159 175.268 503.525 175.903C502.891 176.537 502.032 176.893 501.135 176.894H457.564C456.668 176.893 455.808 176.537 455.175 175.903C454.541 175.268 454.184 174.409 454.183 173.512Z" fill="#2F2E41"/>
<path d="M474.178 176.457C484.369 176.457 492.629 168.192 492.629 157.996C492.629 147.8 484.369 139.535 474.178 139.535C463.988 139.535 455.727 147.8 455.727 157.996C455.727 168.192 463.988 176.457 474.178 176.457Z" fill="#FFB7B7"/>
<path d="M448.229 156.224C448.235 150.943 450.335 145.881 454.067 142.146C457.799 138.412 462.859 136.312 468.137 136.306H471.894C477.172 136.312 482.232 138.412 485.964 142.146C489.696 145.881 491.795 150.943 491.801 156.224V156.6H483.863L481.156 149.015L480.614 156.6H476.512L475.146 152.773L474.873 156.6H448.23L448.229 156.224Z" fill="#2F2E41"/>
<path d="M472.362 179.008C471.99 178.503 471.767 177.903 471.72 177.277C471.674 176.651 471.804 176.024 472.098 175.47C476.078 167.894 481.651 153.897 474.254 145.265L473.722 144.645H495.198V176.905L475.689 180.349C475.491 180.384 475.291 180.402 475.091 180.402C474.558 180.402 474.033 180.276 473.559 180.033C473.084 179.791 472.675 179.439 472.362 179.008Z" fill="#2F2E41"/>
<path d="M385.651 454.001H234.291C225.771 453.991 217.603 450.601 211.578 444.573C205.554 438.545 202.165 430.372 202.155 421.848V32.1535C202.165 23.6289 205.554 15.4561 211.578 9.42826C217.603 3.4004 225.771 0.00968536 234.291 0H254.747L253.958 1.93688C253.14 3.94146 252.828 6.11639 253.049 8.27007C253.27 10.4238 254.016 12.4901 255.223 14.287C256.43 16.0839 258.06 17.5563 259.97 18.5744C261.88 19.5926 264.01 20.1252 266.174 20.1253H352.47C354.633 20.1251 356.764 19.5925 358.674 18.5744C360.583 17.5563 362.213 16.084 363.42 14.2871C364.627 12.4902 365.374 10.4239 365.595 8.27019C365.816 6.1165 365.504 3.94154 364.687 1.93688L363.897 0H385.651C394.171 0.0096678 402.339 3.40036 408.364 9.42822C414.388 15.4561 417.777 23.6288 417.787 32.1535V421.848C417.777 430.372 414.388 438.545 408.364 444.573C402.339 450.601 394.171 453.991 385.651 454.001Z" fill="white"/>
<path d="M385.651 454.001H234.291C225.771 453.991 217.603 450.601 211.578 444.573C205.554 438.545 202.165 430.372 202.155 421.848V32.1535C202.165 23.6289 205.554 15.4561 211.578 9.42826C217.603 3.4004 225.771 0.00968536 234.291 0H254.747L253.958 1.93688C253.14 3.94146 252.828 6.11639 253.049 8.27007C253.27 10.4238 254.016 12.4901 255.223 14.287C256.43 16.0839 258.06 17.5563 259.97 18.5744C261.88 19.5926 264.01 20.1252 266.174 20.1253H352.47C354.633 20.1251 356.764 19.5925 358.674 18.5744C360.583 17.5563 362.213 16.084 363.42 14.2871C364.627 12.4902 365.374 10.4239 365.595 8.27019C365.816 6.1165 365.504 3.94154 364.687 1.93688L363.897 0H385.651C394.171 0.0096678 402.339 3.40036 408.364 9.42822C414.388 15.4561 417.777 23.6288 417.787 32.1535V421.848C417.777 430.372 414.388 438.545 408.364 444.573C402.339 450.601 394.171 453.991 385.651 454.001ZM234.291 2.81195C226.516 2.82083 219.062 5.91503 213.565 11.4157C208.067 16.9164 204.975 24.3744 204.966 32.1535V421.848C204.975 429.627 208.067 437.085 213.565 442.585C219.062 448.086 226.516 451.18 234.291 451.189H385.651C393.425 451.18 400.879 448.086 406.377 442.585C411.875 437.085 414.967 429.627 414.976 421.848V32.1535C414.967 24.3744 411.875 16.9164 406.377 11.4157C400.879 5.91498 393.425 2.82081 385.651 2.81195H367.941C368.57 5.1833 368.646 7.66753 368.163 10.073C367.681 12.4784 366.652 14.7408 365.157 16.6855C363.662 18.6302 361.741 20.2053 359.541 21.2893C357.341 22.3732 354.922 22.9371 352.47 22.9373H266.174C263.722 22.9364 261.303 22.3721 259.104 21.2879C256.905 20.2037 254.983 18.6286 253.489 16.684C251.994 14.7394 250.966 12.4773 250.483 10.0721C250 7.66699 250.076 5.18306 250.705 2.81193L234.291 2.81195Z" fill="#3F3D56"/>
<path d="M390.067 137.853C386.226 126.814 380.025 116.746 371.896 108.351C363.767 99.9565 353.906 93.4368 343 89.2471C332.094 85.0573 320.405 83.2982 308.75 84.0925C297.095 84.8868 285.753 88.2153 275.515 93.846C265.278 99.4767 256.391 107.274 249.474 116.694C242.558 126.114 237.779 136.93 235.47 148.388C233.161 159.847 233.378 171.671 236.105 183.036C238.833 194.402 244.005 205.036 251.262 214.196C251.983 215.104 252.733 216.013 253.497 216.893C253.554 216.951 253.597 217.009 253.655 217.066C255.535 219.233 257.533 221.294 259.639 223.241C260.187 223.746 260.764 224.265 261.34 224.755C262.436 225.736 263.561 226.674 264.729 227.568C267.009 229.367 269.387 231.038 271.851 232.574L271.938 232.618C273.538 233.613 275.167 234.536 276.826 235.416L277.503 235.762C279.06 236.57 280.646 237.335 282.276 238.042C282.607 238.186 282.968 238.33 283.299 238.475C283.328 238.489 283.343 238.489 283.372 238.503C286.664 239.873 290.045 241.015 293.493 241.922C300.252 243.725 307.217 244.636 314.212 244.634C316.764 244.634 319.287 244.519 321.781 244.274C327.481 243.747 333.107 242.611 338.564 240.884C338.579 240.884 338.593 240.869 338.607 240.869C342.055 239.77 345.422 238.435 348.686 236.873C348.7 236.859 348.73 236.859 348.744 236.844C349.479 236.498 350.186 236.123 350.906 235.762C351.022 235.705 351.137 235.647 351.253 235.589C351.829 235.286 352.406 234.983 352.983 234.666C354.424 233.873 355.837 233.036 357.236 232.142C357.626 231.911 358 231.665 358.39 231.406C359.658 230.569 360.913 229.675 362.124 228.766C362.34 228.607 362.571 228.448 362.788 228.275C376.295 218.016 386.21 203.742 391.11 187.499C396.011 171.255 395.645 153.876 390.067 137.853H390.067Z" fill="white"/>
<path d="M340.718 197.395C347.366 197.395 352.756 192.003 352.756 185.351C352.756 178.699 347.366 173.307 340.718 173.307C334.07 173.307 328.68 178.699 328.68 185.351C328.68 192.003 334.07 197.395 340.718 197.395Z" fill="#2F2E41"/>
<path d="M344.072 173.639C346.155 173.639 348.203 174.18 350.015 175.209C351.827 176.238 353.341 177.72 354.409 179.51C355.477 181.3 356.062 183.337 356.108 185.421C356.154 187.505 355.658 189.565 354.669 191.4C355.713 190.094 356.473 188.584 356.901 186.967C357.329 185.351 357.416 183.663 357.156 182.011C356.896 180.359 356.295 178.779 355.391 177.372C354.487 175.965 353.3 174.762 351.906 173.84C350.512 172.917 348.941 172.296 347.294 172.014C345.646 171.732 343.958 171.797 342.337 172.204C340.716 172.612 339.197 173.352 337.878 174.379C336.558 175.406 335.467 176.697 334.674 178.169C335.799 176.755 337.229 175.613 338.856 174.829C340.484 174.045 342.267 173.638 344.073 173.639H344.072Z" fill="#2F2E41"/>
<path d="M318.223 185.325C337.753 185.325 353.585 169.485 353.585 149.944C353.585 130.403 337.753 114.563 318.223 114.563C298.693 114.563 282.861 130.403 282.861 149.944C282.861 169.485 298.693 185.325 318.223 185.325Z" fill="#2F2E41"/>
<path d="M290.469 127.992C296.562 121.136 305.08 116.916 314.223 116.224C323.367 115.532 332.422 118.421 339.477 124.282C339.188 124.006 338.9 123.729 338.602 123.462C331.615 117.208 322.432 113.986 313.072 114.504C303.712 115.021 294.94 119.237 288.685 126.223C282.43 133.209 279.203 142.394 279.714 151.76C280.225 161.126 284.432 169.905 291.41 176.168C291.478 176.228 291.545 176.288 291.612 176.348C291.912 176.615 292.221 176.867 292.528 177.123C285.884 170.799 281.956 162.14 281.572 152.973C281.188 143.807 284.379 134.849 290.47 127.992L290.469 127.992Z" fill="#2F2E41"/>
<path d="M317.923 185.025C330.501 185.025 340.698 174.823 340.698 162.238C340.698 149.653 330.501 139.45 317.923 139.45C305.345 139.45 295.148 149.653 295.148 162.238C295.148 174.823 305.345 185.025 317.923 185.025Z" fill="#A0616A"/>
<path d="M358.678 221.61V229.256C357.279 230.151 355.866 230.987 354.424 231.781C353.848 232.098 353.271 232.401 352.695 232.704C352.579 232.762 352.464 232.819 352.348 232.877C351.627 233.238 350.921 233.613 350.186 233.959C350.172 233.974 350.142 233.974 350.128 233.988C346.864 235.55 343.497 236.885 340.049 237.984C340.035 237.984 340.021 237.998 340.006 237.998C334.549 239.726 328.923 240.862 323.223 241.388C320.729 241.634 318.206 241.749 315.654 241.749C308.659 241.751 301.694 240.839 294.935 239.037C291.487 238.13 288.105 236.988 284.814 235.618C284.785 235.604 284.77 235.604 284.741 235.589C284.409 235.445 284.049 235.301 283.717 235.156C282.088 234.45 280.502 233.685 278.945 232.877L278.268 232.531C276.609 231.651 274.98 230.728 273.38 229.732L273.293 229.689C270.829 228.153 268.451 226.482 266.17 224.683C265.003 223.789 263.878 222.851 262.782 221.87C262.205 221.38 261.629 220.86 261.081 220.355C258.975 218.409 256.977 216.348 255.097 214.181C255.346 212.678 255.713 211.198 256.193 209.752L256.207 209.738C256.293 209.491 256.395 209.251 256.51 209.016C256.589 208.809 256.681 208.607 256.784 208.411C259.365 203.578 264.037 202.381 269.833 202.121C273.106 201.976 276.724 202.135 280.546 202.092C282.564 202.078 284.654 202.005 286.745 201.818C299.938 200.621 297.545 192.83 298.136 188.632C298.727 184.564 302.389 188.084 302.634 188.315L302.648 188.33C310.114 191.825 318.374 193.274 326.583 192.528C327.996 192.354 329.409 192.253 330.822 192.21C334.542 192.167 333.734 193.234 332.451 194.114C331.829 194.524 331.178 194.891 330.505 195.211C330.505 195.211 329.913 198.817 329.308 204.213C328.731 209.377 346.913 211.166 350.474 212.291H350.488C352.521 213.039 354.335 214.283 355.765 215.911C357.196 217.538 358.197 219.498 358.678 221.61Z" fill="#3F3D56"/>
<path d="M298.444 133.754V156.547H303.718L310.43 149.351L309.532 156.547H332.846L331.404 149.351L334.288 156.547H338.005V133.754H298.444Z" fill="#2F2E41"/>
<path d="M294.848 160.739C295.841 160.739 296.646 159.262 296.646 157.441C296.646 155.62 295.841 154.143 294.848 154.143C293.855 154.143 293.05 155.62 293.05 157.441C293.05 159.262 293.855 160.739 294.848 160.739Z" fill="#A0616A"/>
<path d="M340.999 160.739C341.992 160.739 342.797 159.262 342.797 157.441C342.797 155.62 341.992 154.143 340.999 154.143C340.006 154.143 339.201 155.62 339.201 157.441C339.201 159.262 340.006 160.739 340.999 160.739Z" fill="#A0616A"/>
<path d="M390.067 137.853C386.226 126.814 380.025 116.746 371.896 108.351C363.767 99.9565 353.906 93.4368 343 89.2471C332.094 85.0573 320.405 83.2982 308.75 84.0925C297.095 84.8868 285.753 88.2153 275.515 93.846C265.278 99.4767 256.391 107.274 249.474 116.694C242.558 126.114 237.779 136.93 235.47 148.388C233.161 159.847 233.378 171.671 236.105 183.036C238.833 194.402 244.005 205.036 251.262 214.196C251.983 215.104 252.733 216.013 253.497 216.893C253.554 216.951 253.597 217.009 253.655 217.066C255.535 219.233 257.533 221.294 259.639 223.241C260.187 223.746 260.764 224.265 261.34 224.755C262.436 225.736 263.561 226.674 264.729 227.568C267.009 229.367 269.387 231.038 271.851 232.574L271.938 232.618C273.538 233.613 275.167 234.536 276.826 235.416L277.503 235.762C279.06 236.57 280.646 237.335 282.276 238.042C282.607 238.186 282.968 238.33 283.299 238.475C283.328 238.489 283.343 238.489 283.372 238.503C286.664 239.873 290.045 241.015 293.493 241.922C300.252 243.725 307.217 244.636 314.212 244.634C316.764 244.634 319.287 244.519 321.781 244.274C327.481 243.747 333.107 242.611 338.564 240.884C338.579 240.884 338.593 240.869 338.607 240.869C342.055 239.77 345.422 238.435 348.686 236.873C348.7 236.859 348.73 236.859 348.744 236.844C349.479 236.498 350.186 236.123 350.906 235.762C351.022 235.705 351.137 235.647 351.253 235.589C351.829 235.286 352.406 234.983 352.983 234.666C354.424 233.873 355.837 233.036 357.236 232.142C357.626 231.911 358 231.665 358.39 231.406C359.658 230.569 360.913 229.675 362.124 228.766C362.34 228.607 362.571 228.448 362.788 228.275C376.295 218.016 386.21 203.742 391.11 187.499C396.011 171.255 395.645 153.876 390.067 137.853H390.067ZM360.134 224.77C359.658 225.145 359.168 225.506 358.678 225.837C358.202 226.198 357.726 226.544 357.236 226.862C356.818 227.164 356.4 227.453 355.967 227.727C355.606 227.972 355.246 228.203 354.886 228.434C353.689 229.184 352.479 229.905 351.253 230.598C351.123 230.67 350.993 230.742 350.863 230.814C350.315 231.117 349.767 231.406 349.22 231.694C349.147 231.738 349.061 231.766 348.989 231.81L348.902 231.853C348.21 232.214 347.504 232.56 346.797 232.892C344.071 234.205 341.263 235.343 338.391 236.296C338.017 236.426 337.641 236.556 337.267 236.671C332.102 238.315 326.775 239.398 321.378 239.903C319.013 240.119 316.619 240.235 314.212 240.235C307.596 240.248 301.007 239.385 294.618 237.667C291.338 236.81 288.125 235.721 285.001 234.406C284.669 234.277 284.337 234.132 284.02 234.002C283.848 233.93 283.688 233.858 283.515 233.772C282.16 233.18 280.82 232.531 279.507 231.853L278.873 231.521C277.273 230.684 275.701 229.79 274.172 228.838C273.61 228.492 273.048 228.131 272.5 227.756C270.77 226.616 269.083 225.39 267.439 224.106C266.329 223.269 265.262 222.375 264.224 221.452C263.676 220.99 263.142 220.485 262.624 220.009C260.579 218.12 258.644 216.117 256.827 214.008C256.222 213.316 255.631 212.623 255.068 211.902C254.94 211.759 254.82 211.61 254.708 211.455C245.34 199.627 239.705 185.275 238.522 170.231C237.339 155.186 240.662 140.129 248.066 126.982C255.47 113.834 266.621 103.19 280.095 96.409C293.57 89.6275 308.758 87.0151 323.722 88.9051C338.686 90.7951 352.749 97.1018 364.117 107.021C375.484 116.94 383.641 130.022 387.548 144.598C391.454 159.174 390.933 174.585 386.051 188.863C381.168 203.142 372.146 215.642 360.134 224.77Z" fill="#3F3D56"/>
<path d="M369.644 307.521H258.726C255.198 307.518 251.815 306.114 249.321 303.616C246.828 301.119 245.427 297.734 245.427 294.204C245.427 290.674 246.828 287.288 249.321 284.791C251.815 282.294 255.198 280.889 258.726 280.886H369.644C371.393 280.885 373.125 281.228 374.741 281.897C376.357 282.565 377.826 283.546 379.063 284.783C380.3 286.02 381.281 287.488 381.951 289.105C382.621 290.721 382.965 292.454 382.965 294.204C382.965 295.953 382.621 297.686 381.951 299.303C381.281 300.919 380.3 302.388 379.063 303.624C377.826 304.861 376.357 305.842 374.741 306.51C373.125 307.179 371.393 307.522 369.644 307.521Z" fill="#3F3D56"/>
<path d="M369.644 348.583H258.726C255.198 348.58 251.815 347.175 249.321 344.678C246.828 342.181 245.427 338.795 245.427 335.265C245.427 331.735 246.828 328.35 249.321 325.853C251.815 323.355 255.198 321.951 258.726 321.948H369.644C371.393 321.947 373.125 322.29 374.741 322.959C376.357 323.627 377.826 324.608 379.063 325.845C380.3 327.081 381.281 328.55 381.951 330.166C382.621 331.783 382.965 333.516 382.965 335.265C382.965 337.015 382.621 338.748 381.951 340.364C381.281 341.981 380.3 343.449 379.063 344.686C377.826 345.923 376.357 346.904 374.741 347.572C373.125 348.241 371.393 348.584 369.644 348.583Z" fill="#3F3D56"/>
<path d="M310.303 406.846C317.654 406.846 323.613 400.884 323.613 393.529C323.613 386.174 317.654 380.211 310.303 380.211C302.952 380.211 296.992 386.174 296.992 393.529C296.992 400.884 302.952 406.846 310.303 406.846Z" fill="#3F3D56"/>
<path d="M375.526 393.528C369.226 391.191 361.41 387.201 356.565 382.974L359.98 392.418H335.814V394.638H359.98L356.565 404.084C361.41 399.857 369.226 395.867 375.526 393.528Z" fill="#3F3D56"/>
<path d="M245.079 393.528C251.379 391.191 259.195 387.201 264.04 382.974L260.626 392.418H284.792V394.638H260.626L264.04 404.084C259.195 399.857 251.379 395.867 245.079 393.528Z" fill="#3F3D56"/>
<path d="M681.063 455.063L0.936813 456C0.688355 456 0.450072 455.901 0.274386 455.725C0.098699 455.55 0 455.311 0 455.063C0 454.814 0.098699 454.576 0.274386 454.4C0.450072 454.224 0.688355 454.125 0.936813 454.125L681.063 453.188C681.312 453.188 681.55 453.287 681.726 453.463C681.901 453.638 682 453.877 682 454.125C682 454.374 681.901 454.612 681.726 454.788C681.55 454.964 681.312 455.063 681.063 455.063Z" fill="#3F3D56"/>
</g>
<defs>
<clipPath id="clip0_12:800">
<rect width="682" height="456" fill="white"/>
</clipPath>
</defs>
</svg>
