<svg width="534" height="455" viewBox="0 0 534 455" fill="none" xmlns="http://www.w3.org/2000/svg">
<g clip-path="url(#clip0_12:350)">
<path opacity="0.3" d="M211.492 193.136C253.896 193.136 288.271 158.792 288.271 116.427C288.271 74.0615 253.896 39.7175 211.492 39.7175C169.088 39.7175 134.713 74.0615 134.713 116.427C134.713 158.792 169.088 193.136 211.492 193.136Z" fill="#FFF163"/>
<path opacity="0.3" d="M62.8194 375.147C87.8763 375.147 108.189 354.853 108.189 329.819C108.189 304.785 87.8763 284.49 62.8194 284.49C37.7625 284.49 17.4498 304.785 17.4498 329.819C17.4498 354.853 37.7625 375.147 62.8194 375.147Z" fill="#FFF163"/>
<path opacity="0.3" d="M353.883 422.567C405.153 422.567 446.716 381.042 446.716 329.819C446.716 278.595 405.153 237.07 353.883 237.07C302.612 237.07 261.049 278.595 261.049 329.819C261.049 381.042 302.612 422.567 353.883 422.567Z" fill="#FFF163"/>
<path d="M46.1582 179.944L44.7929 179.653C45.0853 178.283 45.3901 176.918 45.7073 175.556L47.0672 175.873C46.7519 177.226 46.4489 178.583 46.1582 179.944Z" fill="#FFF163"/>
<path d="M485.724 168.421C485.008 165.764 484.231 163.081 483.416 160.446L484.749 160.034C485.57 162.685 486.352 165.385 487.072 168.059L485.724 168.421ZM49.1035 167.812L47.7566 167.446C48.4874 164.764 49.2794 162.056 50.111 159.398L51.4436 159.814C50.6168 162.456 49.8298 165.146 49.1035 167.812V167.812ZM480.818 152.574C479.904 149.97 478.933 147.355 477.93 144.801L479.229 144.292C480.238 146.861 481.217 149.493 482.135 152.113L480.818 152.574ZM54.0788 151.91L52.7626 151.445C53.6923 148.821 54.6831 146.181 55.7076 143.598L57.0054 144.112C55.987 146.679 55.0024 149.303 54.0788 151.91ZM474.754 137.138C473.655 134.617 472.492 132.079 471.298 129.595L472.556 128.991C473.758 131.491 474.928 134.044 476.034 136.581L474.754 137.138ZM60.2186 136.429L58.9405 135.867C60.0611 133.322 61.2441 130.764 62.4574 128.263L63.7137 128.871C62.5079 131.356 61.3321 133.899 60.2186 136.429ZM467.563 122.182C466.276 119.741 464.929 117.295 463.558 114.911L464.769 114.216C466.148 116.615 467.504 119.076 468.799 121.533L467.563 122.182ZM67.4862 121.451L66.2531 120.796C67.5594 118.34 68.9282 115.877 70.3214 113.476L71.5293 114.175C70.1446 116.562 68.784 119.01 67.4862 121.451ZM459.287 107.79C457.828 105.453 456.303 103.111 454.757 100.828L455.913 100.047C457.469 102.344 459.003 104.701 460.472 107.051L459.287 107.79ZM75.8365 107.054L74.6552 106.311C76.1361 103.962 77.6817 101.607 79.2494 99.3124L80.4028 100.098C78.8446 102.38 77.3082 104.72 75.8365 107.054H75.8365ZM449.971 94.0369C448.351 91.8222 446.658 89.597 444.941 87.4235L446.037 86.5593C447.765 88.7464 449.467 90.9853 451.099 93.2135L449.971 94.0369ZM85.2213 93.3157L84.0979 92.4876C85.7499 90.2501 87.4638 88.0157 89.1925 85.8463L90.2844 86.7146C88.5667 88.8711 86.8633 91.0919 85.2213 93.3157H85.2213ZM439.669 80.9975C437.882 78.8976 436.03 76.8014 434.166 74.7672L435.195 73.8254C437.071 75.8718 438.934 77.981 440.732 80.0938L439.669 80.9975ZM95.5859 80.3042L94.5259 79.3964C96.3329 77.2911 98.2054 75.1885 100.091 73.1471L101.117 74.093C99.2428 76.1221 97.3816 78.2118 95.5859 80.3042ZM428.437 68.7413C426.496 66.7735 424.496 64.8176 422.49 62.9278L423.449 61.9131C425.466 63.8148 427.479 65.7826 429.431 67.7627L428.437 68.7413ZM106.872 68.0892L105.881 67.1065C107.842 65.1343 109.862 63.1747 111.887 61.2821L112.841 62.3006C110.828 64.1816 108.82 66.1292 106.872 68.0892ZM416.333 57.3346C414.256 55.5153 412.117 53.7099 409.976 51.9689L410.857 50.8875C413.012 52.639 415.163 54.4553 417.253 56.2859L416.333 57.3346ZM119.017 56.734L118.101 55.6815C120.199 53.8594 122.356 52.053 124.515 50.3124L125.392 51.3979C123.247 53.1276 121.102 54.9232 119.017 56.734ZM403.424 46.8389C401.224 45.1792 398.958 43.5349 396.689 41.9516L397.488 40.8081C399.771 42.4014 402.052 44.0559 404.266 45.7254L403.424 46.8389ZM131.956 46.2991L131.12 45.1822C133.346 43.5178 135.63 41.8746 137.908 40.298L138.703 41.4448C136.439 43.0112 134.169 44.6446 131.956 46.2991ZM389.777 37.3138C387.456 35.8173 385.073 34.3429 382.698 32.9325L383.411 31.7332C385.801 33.1528 388.198 34.6361 390.534 36.1418L389.777 37.3138ZM145.621 36.8419L144.868 35.6672C147.207 34.172 149.605 32.701 151.993 31.2947L152.702 32.4967C150.328 33.8941 147.945 35.3563 145.621 36.8419V36.8419ZM375.46 28.8141C373.039 27.4943 370.554 26.199 368.074 24.9643L368.697 23.716C371.192 24.9585 373.693 26.2617 376.128 27.5897L375.46 28.8141ZM159.937 28.415L159.273 27.1878C161.714 25.8701 164.212 24.5795 166.698 23.3527L167.316 24.6031C164.845 25.8224 162.362 27.1051 159.937 28.415ZM360.549 21.3886C358.036 20.2507 355.461 19.1427 352.896 18.0946L353.424 16.8034C356.005 17.8579 358.597 18.9734 361.126 20.1186L360.549 21.3886ZM174.829 21.0669L174.257 19.7947C176.783 18.6622 179.369 17.5596 181.941 16.5184L182.465 17.8109C179.908 18.8461 177.339 19.9415 174.829 21.0669ZM345.124 15.0852C342.522 14.1335 339.871 13.2185 337.242 12.3655L337.674 11.0389C340.318 11.8974 342.986 12.8181 345.603 13.7756L345.124 15.0852ZM190.214 14.8393L189.738 13.5284C192.345 12.5835 195.003 11.6757 197.638 10.8295L198.065 12.1575C195.446 12.9982 192.805 13.9005 190.214 14.8393ZM329.263 9.93977C326.605 9.18523 323.899 8.47114 321.22 7.81671L321.552 6.46217C324.247 7.12037 326.97 7.83918 329.645 8.59818L329.263 9.93977ZM206.031 9.76169L205.654 8.41872C208.325 7.66927 211.05 6.95862 213.753 6.30656L214.08 7.66246C211.394 8.31044 208.686 9.01666 206.031 9.76169ZM313.104 5.99295C310.401 5.43792 307.649 4.9258 304.926 4.47054L305.157 3.09489C307.896 3.55288 310.665 4.0684 313.385 4.62683L313.104 5.99295ZM222.201 5.86185L221.925 4.49502C224.65 3.94374 227.42 3.43638 230.157 2.98691L230.384 4.36325C227.663 4.80968 224.91 5.31398 222.201 5.86185V5.86185ZM296.698 3.24982C293.955 2.89467 291.173 2.5865 288.43 2.33283L288.558 0.94424C291.318 1.19928 294.117 1.50948 296.877 1.86668L296.698 3.24982ZM238.616 3.16707L238.441 1.78325C241.191 1.43491 243.991 1.13254 246.762 0.884316L246.886 2.27358C244.133 2.52012 241.35 2.82078 238.616 3.16708V3.16707ZM280.133 1.71855C277.382 1.56499 274.585 1.46011 271.82 1.40665L271.848 0.0119337C274.629 0.0660767 277.443 0.171627 280.211 0.325876L280.133 1.71855ZM255.185 1.68278L255.111 0.290102C257.883 0.143349 260.698 0.0459629 263.477 0L263.5 1.39472C260.738 1.44003 257.94 1.53707 255.185 1.68278Z" fill="#FFF163"/>
<path d="M488.668 180.717C488.382 179.354 488.084 177.996 487.774 176.643L489.134 176.331C489.447 177.693 489.747 179.06 490.034 180.431L488.668 180.717Z" fill="#FFF163"/>
<path d="M490.551 271.653L489.181 271.383C489.45 270.021 489.707 268.655 489.952 267.284L491.326 267.528C491.08 268.908 490.822 270.283 490.551 271.653Z" fill="#FFF163"/>
<path d="M267.332 454.646C265.814 454.646 264.301 454.631 262.791 454.602L262.818 453.207C265.578 453.261 268.356 453.264 271.119 453.22L271.141 454.615C269.874 454.635 268.604 454.645 267.332 454.646ZM279.488 454.328L279.414 452.935C282.175 452.79 284.96 452.592 287.692 452.348L287.816 453.738C285.067 453.983 282.265 454.181 279.488 454.328ZM254.447 454.288C251.676 454.133 248.875 453.926 246.121 453.672L246.249 452.283C248.987 452.535 251.771 452.742 254.525 452.896L254.447 454.288ZM296.118 452.845L295.943 451.461C298.691 451.114 301.454 450.713 304.156 450.27L304.382 451.647C301.663 452.092 298.883 452.495 296.118 452.845V452.845ZM237.821 452.752C235.063 452.395 232.284 451.983 229.561 451.528L229.791 450.153C232.497 450.604 235.259 451.013 238 451.368L237.821 452.752ZM312.596 450.149L312.32 448.781C315.029 448.235 317.755 447.632 320.423 446.991L320.749 448.347C318.065 448.992 315.322 449.598 312.596 450.149ZM221.352 450.002C218.629 449.444 215.887 448.829 213.204 448.174L213.535 446.819C216.202 447.469 218.926 448.081 221.633 448.636L221.352 450.002ZM328.831 446.246L328.455 444.903C331.103 444.162 333.777 443.36 336.403 442.519L336.829 443.847C334.187 444.694 331.496 445.501 328.831 446.246V446.246ZM205.129 446.047C202.461 445.291 199.765 444.474 197.118 443.616L197.548 442.29C200.18 443.142 202.858 443.955 205.51 444.706L205.129 446.047ZM344.712 441.163L344.237 439.852C346.817 438.919 349.419 437.925 351.97 436.895L352.493 438.188C349.926 439.224 347.308 440.225 344.712 441.163L344.712 441.163ZM189.204 440.891C186.595 439.939 183.969 438.924 181.399 437.875L181.926 436.584C184.48 437.626 187.09 438.635 189.683 439.581L189.204 440.891ZM360.16 434.93L359.59 433.656C362.102 432.533 364.625 431.35 367.088 430.138L367.705 431.389C365.226 432.608 362.688 433.799 360.16 434.93L360.16 434.93ZM173.713 434.574C171.183 433.432 168.641 432.227 166.156 430.993L166.777 429.744C169.247 430.97 171.774 432.168 174.288 433.304L173.713 434.574ZM375.117 427.572L374.454 426.345C376.881 425.039 379.311 423.673 381.677 422.284L382.384 423.487C380.003 424.884 377.558 426.259 375.117 427.572H375.117ZM158.737 427.135C156.299 425.81 153.853 424.421 151.468 423.009L152.18 421.809C154.55 423.213 156.981 424.593 159.405 425.91L158.737 427.135ZM389.499 419.135L388.749 417.96C391.06 416.487 393.384 414.946 395.656 413.378L396.45 414.527C394.163 416.103 391.824 417.654 389.499 419.135H389.499ZM144.357 418.619C142.026 417.12 139.69 415.557 137.413 413.972L138.211 412.828C140.474 414.403 142.796 415.956 145.112 417.446L144.357 418.619ZM403.229 409.666L402.394 408.547C404.597 406.907 406.803 405.199 408.952 403.473L409.827 404.56C407.665 406.297 405.445 408.015 403.229 409.666L403.229 409.666ZM130.645 409.076C128.434 407.414 126.219 405.685 124.062 403.936L124.942 402.853C127.086 404.591 129.287 406.31 131.484 407.962L130.645 409.076ZM416.234 399.215L415.321 398.161C417.401 396.361 419.477 394.497 421.492 392.62L422.444 393.641C420.417 395.528 418.328 397.404 416.234 399.215L416.234 399.215ZM117.672 398.559C115.583 396.735 113.501 394.849 111.485 392.955L112.441 391.939C114.445 393.821 116.514 395.695 118.591 397.509L117.672 398.559ZM428.448 387.842L427.46 386.858C429.411 384.903 431.346 382.892 433.212 380.881L434.236 381.829C432.358 383.853 430.411 385.876 428.448 387.842ZM105.506 387.129C103.561 385.164 101.623 383.133 99.7452 381.092L100.773 380.148C102.639 382.176 104.566 384.195 106.499 386.149L105.506 387.129ZM439.802 375.607L438.744 374.697C440.545 372.608 442.329 370.46 444.047 368.314L445.138 369.185C443.409 371.344 441.614 373.505 439.802 375.607ZM94.2097 374.848C92.4125 372.744 90.6283 370.578 88.9065 368.408L90.0006 367.542C91.7118 369.698 93.4851 371.852 95.2716 373.942L94.2097 374.848ZM450.237 362.571L449.115 361.741C450.762 359.52 452.385 357.247 453.938 354.986L455.089 355.775C453.527 358.05 451.895 360.336 450.237 362.571ZM83.8434 361.78C82.203 359.55 80.5824 357.26 79.0263 354.974L80.1809 354.189C81.7272 356.462 83.3379 358.738 84.968 360.955L83.8434 361.78ZM459.69 348.803L458.511 348.057C459.984 345.735 461.436 343.349 462.827 340.966L464.034 341.668C462.634 344.067 461.172 346.467 459.69 348.803ZM74.4631 347.997C72.9921 345.656 71.544 343.254 70.1596 340.86L71.3681 340.163C72.7443 342.542 74.1836 344.928 75.6457 347.256L74.4631 347.997ZM468.112 334.376L466.881 333.718C468.186 331.279 469.459 328.792 470.665 326.326L471.919 326.937C470.706 329.42 469.426 331.922 468.112 334.376ZM66.1216 333.57C64.8261 331.127 63.559 328.627 62.3556 326.141L63.6125 325.533C64.8084 328.004 66.0677 330.489 67.3553 332.918L66.1216 333.57ZM475.45 319.363L474.174 318.798C475.29 316.282 476.377 313.705 477.403 311.142L478.699 311.659C477.667 314.239 476.574 316.831 475.45 319.363V319.363ZM58.8663 318.577C57.7535 316.044 56.6745 313.459 55.6588 310.895L56.957 310.381C57.9662 312.931 59.0387 315.5 60.1443 318.017L58.8663 318.577ZM481.661 303.84L480.347 303.37C481.277 300.769 482.17 298.119 483.002 295.493L484.332 295.914C483.497 298.555 482.597 301.222 481.661 303.84ZM52.7387 303.1C51.8151 300.49 50.9276 297.827 50.1015 295.184L51.4341 294.768C52.2551 297.394 53.1368 300.041 54.0549 302.636L52.7387 303.1ZM486.707 287.892L485.361 287.52C486.092 284.877 486.785 282.174 487.42 279.488L488.779 279.81C488.139 282.512 487.443 285.231 486.707 287.892ZM47.759 287.176C47.0324 284.509 46.3453 281.791 45.7168 279.097L47.0767 278.781C47.7011 281.458 48.3837 284.159 49.1059 286.81L47.759 287.176Z" fill="#FFF163"/>
<path d="M43.9432 270.789C43.6774 269.418 43.4238 268.042 43.1825 266.661L44.5581 266.421C44.7973 267.793 45.0493 269.16 45.314 270.524L43.9432 270.789Z" fill="#FFF163"/>
<path d="M381.289 272.291L379.991 271.778C380.498 270.499 380.99 269.189 381.455 267.884L382.77 268.352C382.3 269.672 381.802 270.997 381.289 272.291Z" fill="#FFF163"/>
<path d="M267.331 349.694C265.659 349.694 263.972 349.659 262.316 349.593L262.372 348.199C265.12 348.31 267.928 348.329 270.684 348.253L270.722 349.648C269.595 349.679 268.465 349.694 267.331 349.694ZM279.112 349.134L278.98 347.746C281.729 347.485 284.501 347.124 287.221 346.675L287.449 348.051C284.698 348.506 281.893 348.87 279.112 349.134ZM253.933 348.97C251.156 348.668 248.357 348.266 245.612 347.775L245.858 346.402C248.571 346.887 251.339 347.285 254.084 347.583L253.933 348.97ZM295.691 346.397L295.369 345.04C298.056 344.403 300.753 343.665 303.383 342.847L303.798 344.179C301.137 345.006 298.41 345.752 295.691 346.397V346.397ZM237.392 346.011C234.681 345.331 231.963 344.548 229.312 343.684L229.744 342.358C232.365 343.212 235.053 343.986 237.732 344.659L237.392 346.011ZM311.734 341.405L311.228 340.106C313.797 339.106 316.366 338.004 318.864 336.829L319.459 338.09C316.932 339.279 314.333 340.395 311.734 341.405V341.405ZM221.412 340.804C218.822 339.757 216.237 338.607 213.73 337.385L214.342 336.132C216.821 337.339 219.375 338.476 221.935 339.511L221.412 340.804ZM326.937 334.253L326.257 333.035C328.669 331.69 331.062 330.245 333.371 328.741L334.134 329.91C331.798 331.431 329.377 332.892 326.937 334.253ZM206.302 333.447C203.883 332.055 201.481 330.562 199.164 329.008L199.942 327.851C202.233 329.386 204.607 330.863 206.999 332.239L206.302 333.447ZM341.017 325.085L340.176 323.972C342.382 322.309 344.556 320.551 346.637 318.748L347.552 319.802C345.447 321.625 343.248 323.403 341.017 325.085ZM192.346 324.091C190.136 322.38 187.961 320.573 185.881 318.72L186.81 317.68C188.866 319.51 191.016 321.297 193.202 322.99L192.346 324.091ZM353.711 314.085L352.727 313.096C354.685 311.151 356.599 309.114 358.417 307.042L359.467 307.962C357.628 310.057 355.692 312.117 353.711 314.085V314.085ZM179.798 312.924C177.845 310.932 175.937 308.846 174.124 306.725L175.186 305.819C176.978 307.917 178.865 309.979 180.795 311.948L179.798 312.924ZM364.791 301.461L363.682 300.615C365.354 298.424 366.973 296.146 368.494 293.843L369.66 294.611C368.121 296.941 366.484 299.245 364.791 301.461ZM168.887 300.154C167.223 297.913 165.616 295.586 164.112 293.24L165.288 292.488C166.774 294.807 168.363 297.107 170.008 299.323L168.887 300.154ZM374.045 287.445L372.83 286.758C374.187 284.359 375.479 281.881 376.669 279.392L377.929 279.994C376.725 282.511 375.418 285.018 374.045 287.445H374.045ZM159.823 286.017C158.481 283.568 157.208 281.044 156.041 278.517L157.309 277.932C158.462 280.432 159.72 282.926 161.047 285.347L159.823 286.017Z" fill="#FFF163"/>
<path d="M152.766 270.726C152.272 269.425 151.792 268.093 151.34 266.766L152.661 266.317C153.109 267.629 153.583 268.946 154.071 270.231L152.766 270.726Z" fill="#FFF163"/>
<path d="M154.923 182.205L153.628 181.685C154.151 180.385 154.702 179.081 155.266 177.808L156.543 178.373C155.985 179.631 155.44 180.92 154.923 182.205Z" fill="#FFF163"/>
<path d="M160.211 170.818L158.977 170.166C160.296 167.674 161.72 165.196 163.21 162.801L164.396 163.537C162.923 165.905 161.515 168.355 160.211 170.818ZM373.35 168.786C372.001 166.35 370.546 163.928 369.028 161.587L370.199 160.828C371.735 163.196 373.207 165.647 374.571 168.111L373.35 168.786ZM169.076 156.564L167.944 155.747C169.596 153.461 171.349 151.204 173.155 149.037L174.228 149.93C172.442 152.072 170.709 154.303 169.076 156.564ZM364.215 154.704C362.541 152.477 360.765 150.278 358.939 148.169L359.994 147.257C361.842 149.39 363.637 151.614 365.331 153.866L364.215 154.704ZM179.825 143.668L178.816 142.703C180.767 140.667 182.814 138.672 184.901 136.774L185.841 137.805C183.778 139.682 181.754 141.654 179.825 143.668ZM353.224 142.014C351.257 140.037 349.196 138.104 347.098 136.267L348.018 135.218C350.14 137.076 352.225 139.032 354.214 141.031L353.224 142.014ZM192.247 132.371L191.381 131.277C193.595 129.527 195.898 127.833 198.224 126.241L199.013 127.392C196.713 128.965 194.436 130.64 192.247 132.371ZM340.59 130.956C338.37 129.269 336.062 127.637 333.73 126.106L334.496 124.94C336.856 126.489 339.19 128.139 341.435 129.846L340.59 130.956ZM206.107 122.894L205.4 121.691C207.833 120.264 210.348 118.904 212.875 117.649L213.496 118.898C210.998 120.138 208.513 121.483 206.107 122.894ZM326.55 121.743C324.115 120.376 321.603 119.08 319.085 117.889L319.682 116.628C322.229 117.833 324.77 119.145 327.234 120.527L326.55 121.743ZM221.146 115.425L220.613 114.136C223.221 113.06 225.901 112.063 228.578 111.172L229.019 112.495C226.373 113.376 223.724 114.361 221.146 115.425ZM311.369 114.564C308.768 113.549 306.101 112.614 303.44 111.785L303.856 110.453C306.547 111.292 309.246 112.238 311.877 113.264L311.369 114.564ZM237.078 110.121L236.73 108.771C239.461 108.069 242.254 107.454 245.031 106.944L245.283 108.316C242.539 108.82 239.778 109.427 237.078 110.121ZM295.337 109.566C292.623 108.925 289.851 108.37 287.098 107.919L287.324 106.542C290.109 106.999 292.913 107.56 295.658 108.209L295.337 109.566ZM253.595 107.085L253.439 105.699C256.234 105.384 259.084 105.162 261.912 105.038L261.973 106.431C259.177 106.554 256.358 106.774 253.595 107.085ZM278.764 106.847C275.993 106.588 273.171 106.421 270.376 106.353L270.41 104.959C273.237 105.028 276.091 105.196 278.894 105.459L278.764 106.847Z" fill="#FFF163"/>
<path d="M378.874 180.112C378.333 178.838 377.764 177.559 377.183 176.31L378.448 175.722C379.036 176.985 379.612 178.278 380.16 179.567L378.874 180.112Z" fill="#FFF163"/>
<path d="M396.894 227.142C395.06 227.135 393.281 227.764 391.86 228.921C390.438 230.078 389.463 231.692 389.1 233.488C388.737 235.284 389.009 237.149 389.869 238.767C390.73 240.385 392.125 241.654 393.818 242.358C395.511 243.063 397.395 243.158 399.151 242.629C400.906 242.1 402.423 240.979 403.443 239.456C404.464 237.934 404.923 236.106 404.745 234.283C404.566 232.459 403.759 230.755 402.463 229.459C401.735 228.723 400.868 228.139 399.911 227.741C398.955 227.344 397.929 227.14 396.894 227.142Z" fill="#FFF163"/>
<path d="M365.315 227.142C363.481 227.135 361.702 227.764 360.281 228.921C358.859 230.078 357.884 231.692 357.521 233.488C357.158 235.284 357.43 237.149 358.291 238.767C359.151 240.385 360.547 241.654 362.239 242.358C363.932 243.063 365.817 243.158 367.572 242.629C369.327 242.1 370.844 240.979 371.865 239.456C372.885 237.934 373.345 236.106 373.166 234.283C372.987 232.459 372.181 230.755 370.884 229.459C370.155 228.725 369.287 228.142 368.331 227.745C367.375 227.347 366.35 227.142 365.315 227.142Z" fill="#FFF163"/>
<path d="M381.104 183.373C373.235 183.373 365.543 185.705 359.001 190.072C352.458 194.44 347.358 200.648 344.347 207.911C341.336 215.175 340.548 223.167 342.083 230.878C343.618 238.588 347.407 245.671 352.972 251.23C358.536 256.789 365.625 260.575 373.342 262.109C381.06 263.642 389.06 262.855 396.33 259.847C403.599 256.838 409.813 251.743 414.185 245.206C418.556 238.67 420.89 230.985 420.89 223.123C420.89 212.581 416.698 202.47 409.237 195.016C401.776 187.561 391.656 183.373 381.104 183.373ZM388.836 199.949C389.342 199.944 389.843 200.04 390.312 200.231C390.78 200.423 391.205 200.705 391.563 201.063C391.921 201.42 392.204 201.845 392.395 202.313C392.586 202.781 392.682 203.282 392.677 203.787C392.682 204.553 392.459 205.303 392.036 205.942C391.613 206.581 391.01 207.08 390.302 207.375C389.595 207.67 388.816 207.749 388.063 207.601C387.311 207.452 386.62 207.084 386.078 206.542C385.536 206.001 385.167 205.31 385.019 204.559C384.871 203.808 384.949 203.029 385.245 202.322C385.54 201.615 386.04 201.012 386.679 200.59C387.318 200.167 388.069 199.944 388.836 199.949ZM365.315 246.297C363.084 246.298 360.903 245.638 359.047 244.4C357.192 243.163 355.745 241.403 354.891 239.344C354.037 237.285 353.813 235.019 354.248 232.833C354.683 230.647 355.757 228.639 357.335 227.063C358.912 225.486 360.922 224.413 363.11 223.979C365.298 223.544 367.566 223.768 369.627 224.621C371.688 225.475 373.449 226.92 374.688 228.774C375.927 230.628 376.587 232.807 376.586 235.036C376.576 238.019 375.385 240.878 373.274 242.987C371.162 245.097 368.301 246.287 365.315 246.297H365.315ZM383.037 223.847V234.71C383.037 235.222 382.834 235.713 382.471 236.075C382.109 236.437 381.617 236.641 381.104 236.641C380.592 236.641 380.1 236.437 379.738 236.075C379.375 235.713 379.171 235.222 379.171 234.71V226.756C379.171 225.175 377.238 224.825 371.742 221.662C371.029 221.24 369.507 220.492 369.507 218.392C369.519 217.379 369.921 216.411 370.63 215.688L379.292 207.348C379.703 206.932 380.205 206.617 380.758 206.428C381.311 206.239 381.901 206.181 382.481 206.258C383.06 206.336 383.614 206.546 384.098 206.873C384.583 207.201 384.985 207.636 385.272 208.144L388.836 215.398H394.635C395.147 215.399 395.637 215.603 395.999 215.965C396.361 216.327 396.564 216.818 396.564 217.329C396.564 217.841 396.361 218.332 395.999 218.694C395.637 219.056 395.147 219.26 394.635 219.261H387.7C386.408 219.261 385.369 216.485 383.11 213.045L377.202 219.261C379.365 220.95 383.037 222.254 383.037 223.847H383.037ZM396.894 246.285C394.664 246.285 392.485 245.624 390.632 244.387C388.778 243.149 387.333 241.391 386.48 239.333C385.627 237.275 385.404 235.011 385.839 232.827C386.274 230.642 387.347 228.636 388.924 227.061C390.5 225.486 392.508 224.413 394.695 223.979C396.881 223.544 399.147 223.767 401.207 224.62C403.267 225.472 405.027 226.915 406.265 228.767C407.504 230.619 408.165 232.796 408.165 235.024C408.156 238.007 406.965 240.866 404.853 242.976C402.742 245.086 399.88 246.275 396.894 246.285H396.894Z" fill="#FFF163"/>
<path d="M494.179 183.373C486.31 183.373 478.618 185.705 472.075 190.072C465.533 194.44 460.433 200.648 457.422 207.911C454.411 215.175 453.623 223.167 455.158 230.878C456.693 238.588 460.482 245.671 466.046 251.23C471.611 256.789 478.7 260.575 486.417 262.109C494.135 263.642 502.135 262.855 509.404 259.847C516.674 256.838 522.888 251.743 527.26 245.206C531.631 238.67 533.965 230.985 533.965 223.123C533.965 212.581 529.773 202.47 522.312 195.016C514.851 187.561 504.731 183.373 494.179 183.373ZM483.633 211.789C484.85 211.818 486.032 212.204 487.03 212.9C488.029 213.596 488.799 214.571 489.246 215.703C489.692 216.835 489.794 218.073 489.539 219.263C489.285 220.452 488.684 221.54 487.813 222.39C486.942 223.24 485.84 223.815 484.644 224.042C483.448 224.269 482.211 224.138 481.089 223.666C479.967 223.194 479.009 222.402 478.335 221.388C477.662 220.375 477.302 219.186 477.302 217.969C477.311 217.148 477.482 216.336 477.805 215.581C478.128 214.826 478.597 214.142 479.185 213.568C479.773 212.994 480.468 212.541 481.232 212.236C481.995 211.931 482.811 211.779 483.633 211.789V211.789ZM517.374 238.572H513.158V232.392H475.2V238.572H470.984V207.674H475.2V226.213H492.065V211.789H508.942C510.037 211.777 511.124 211.981 512.141 212.389C513.158 212.797 514.084 213.401 514.867 214.166C515.65 214.932 516.275 215.844 516.705 216.85C517.135 217.857 517.362 218.939 517.374 220.033V238.572Z" fill="#FFF163"/>
<path d="M53.7992 212.501H41.9601C41.8321 212.502 41.7094 212.553 41.6189 212.643C41.5283 212.734 41.4773 212.856 41.4769 212.984V229.882C41.4773 230.01 41.5283 230.132 41.6189 230.223C41.7094 230.313 41.8321 230.364 41.9601 230.365H53.7992C54.3113 230.363 54.8021 230.159 55.1643 229.797C55.5264 229.435 55.7306 228.945 55.7321 228.433V214.433C55.7306 213.921 55.5264 213.431 55.1643 213.069C54.8021 212.707 54.3113 212.503 53.7992 212.501Z" fill="#FFF163"/>
<path d="M51.1414 233.986C50.5892 234.03 50.0613 234.232 49.6202 234.567C49.1791 234.902 48.8432 235.356 48.6521 235.876C48.4611 236.396 48.4228 236.959 48.5419 237.5C48.6611 238.04 48.9325 238.536 49.3243 238.927C49.7161 239.318 50.2118 239.59 50.753 239.709C51.2941 239.828 51.858 239.789 52.3781 239.599C52.8981 239.408 53.3527 239.072 53.688 238.631C54.0233 238.191 54.2253 237.663 54.2703 237.112C54.3035 236.693 54.2454 236.271 54.0999 235.877C53.9544 235.483 53.725 235.125 53.4275 234.827C53.1301 234.53 52.7717 234.301 52.377 234.156C51.9823 234.01 51.5608 233.952 51.1414 233.986Z" fill="#FFF163"/>
<path d="M27.9587 233.986C27.4064 234.03 26.8786 234.232 26.4375 234.567C25.9964 234.902 25.6605 235.356 25.4694 235.876C25.2783 236.396 25.2401 236.959 25.3592 237.5C25.4783 238.04 25.7498 238.536 26.1415 238.927C26.5333 239.318 27.0291 239.59 27.5702 239.709C28.1113 239.828 28.6752 239.789 29.1953 239.599C29.7154 239.408 30.1699 239.072 30.5052 238.631C30.8405 238.191 31.0426 237.663 31.0875 237.112C31.1207 236.693 31.0626 236.271 30.9171 235.877C30.7716 235.483 30.5422 235.125 30.2448 234.827C29.9473 234.53 29.5889 234.301 29.1942 234.156C28.7995 234.01 28.378 233.952 27.9587 233.986Z" fill="#FFF163"/>
<path d="M37.6111 212.501H25.7962C25.2778 212.503 24.7811 212.71 24.4145 213.076C24.0479 213.443 23.8411 213.939 23.8392 214.457V228.409C23.8411 228.927 24.0479 229.423 24.4145 229.79C24.7811 230.156 25.2778 230.363 25.7962 230.365H37.6111C37.7391 230.364 37.8618 230.313 37.9524 230.223C38.0429 230.132 38.0939 230.01 38.0943 229.882V212.984C38.0939 212.856 38.0429 212.734 37.9524 212.643C37.8618 212.553 37.7392 212.502 37.6111 212.501Z" fill="#FFF163"/>
<path d="M39.7856 183.373C31.9168 183.373 24.2246 185.705 17.6819 190.072C11.1392 194.44 6.03978 200.648 3.0285 207.911C0.017224 215.175 -0.770665 223.167 0.764472 230.878C2.29961 238.588 6.08882 245.671 11.6529 251.23C17.2171 256.789 24.3062 260.575 32.0238 262.109C39.7415 263.642 47.741 262.855 55.0109 259.847C62.2808 256.838 68.4944 251.743 72.8661 245.206C77.2378 238.67 79.5712 230.985 79.5712 223.123C79.5712 212.581 75.3795 202.47 67.9183 195.016C60.457 187.561 50.3374 183.373 39.7856 183.373ZM59.1147 239.296C59.1109 240.575 58.6006 241.801 57.6951 242.706C56.7897 243.61 55.5628 244.12 54.2824 244.124H25.2888C24.0084 244.12 22.7815 243.61 21.8761 242.706C20.9706 241.801 20.4603 240.575 20.4566 239.296V205.984C20.4596 204.96 20.8678 203.98 21.5921 203.256C22.3165 202.532 23.298 202.125 24.3224 202.122H55.2489C56.2732 202.125 57.2547 202.532 57.9791 203.256C58.7034 203.98 59.1117 204.96 59.1147 205.984V239.296Z" fill="#FFF163"/>
<path d="M53.92 205.501H25.6513C25.4193 205.485 25.1866 205.517 24.9675 205.595C24.7484 205.672 24.5477 205.794 24.3777 205.953C24.2078 206.111 24.0723 206.303 23.9796 206.516C23.887 206.729 23.8391 206.959 23.8391 207.191C23.8391 207.423 23.887 207.653 23.9796 207.866C24.0723 208.079 24.2078 208.271 24.3777 208.429C24.5477 208.588 24.7484 208.709 24.9675 208.787C25.1866 208.865 25.4193 208.897 25.6513 208.881H53.92C54.1519 208.897 54.3846 208.865 54.6037 208.787C54.8228 208.709 55.0236 208.588 55.1935 208.429C55.3635 208.271 55.499 208.079 55.5916 207.866C55.6843 207.653 55.7321 207.423 55.7321 207.191C55.7321 206.959 55.6843 206.729 55.5916 206.516C55.499 206.303 55.3635 206.111 55.1935 205.953C55.0236 205.794 54.8228 205.672 54.6037 205.595C54.3846 205.517 54.1519 205.485 53.92 205.501Z" fill="#FFF163"/>
<path d="M158.874 224.209C158.077 224.209 157.424 225.392 157.424 226.864C157.424 228.337 158.077 229.52 158.874 229.52C159.671 229.52 160.324 228.337 160.324 226.864C160.324 225.392 159.671 224.209 158.874 224.209Z" fill="#FFF163"/>
<path d="M148.243 224.209C147.446 224.209 146.793 225.392 146.793 226.864C146.793 228.337 147.446 229.52 148.243 229.52C149.04 229.52 149.693 228.337 149.693 226.864C149.693 225.392 149.04 224.209 148.243 224.209Z" fill="#FFF163"/>
<path d="M153.559 183.373C145.69 183.373 137.998 185.705 131.455 190.072C124.912 194.44 119.813 200.648 116.801 207.911C113.79 215.175 113.002 223.167 114.537 230.878C116.073 238.588 119.862 245.671 125.426 251.23C130.99 256.789 138.079 260.575 145.797 262.109C153.514 263.642 161.514 262.855 168.784 259.847C176.054 256.838 182.267 251.743 186.639 245.206C191.011 238.67 193.344 230.985 193.344 223.123C193.344 212.581 189.152 202.47 181.691 195.016C174.23 187.561 164.11 183.373 153.559 183.373ZM134.954 221.771L137.153 210.088C137.721 206.913 139.195 204.415 141.961 204.415H146.117L146.358 203.461C146.57 202.63 147.053 201.892 147.732 201.365C148.41 200.838 149.244 200.552 150.103 200.553H156.989C157.847 200.552 158.68 200.837 159.358 201.361C160.036 201.885 160.52 202.62 160.734 203.449L160.976 204.415H165.156C167.862 204.415 169.3 206.865 169.976 210.076V210.088L172.187 221.783C172.204 221.87 172.197 221.961 172.167 222.045C172.136 222.128 172.082 222.202 172.012 222.257C171.942 222.312 171.858 222.346 171.769 222.356C171.681 222.366 171.591 222.352 171.51 222.314L168.442 220.902C168.37 220.872 168.306 220.824 168.258 220.763C168.209 220.702 168.177 220.629 168.164 220.552L166.207 210.22C165.845 208.893 165.337 208.289 164.262 208.289H142.867C141.804 208.289 141.224 208.929 140.922 210.22L138.965 220.552C138.95 220.628 138.917 220.7 138.869 220.761C138.82 220.822 138.758 220.87 138.687 220.902L135.631 222.302C135.55 222.339 135.461 222.352 135.373 222.342C135.285 222.331 135.201 222.296 135.131 222.242C135.062 222.187 135.008 222.114 134.977 222.031C134.946 221.948 134.938 221.858 134.954 221.771ZM177.563 229.29L170.955 245.693C167.632 245.693 164.105 243.038 164.105 243.038C161.93 244.136 157.69 245.102 154.525 245.283C154.187 245.295 153.86 245.307 153.559 245.307C153.257 245.307 152.93 245.307 152.592 245.283C149.427 245.102 145.187 244.124 143.012 243.038C143.012 243.038 139.485 245.693 136.162 245.693L129.554 229.29C129.452 229.033 129.399 228.759 129.397 228.482C129.397 228.065 129.517 227.657 129.742 227.307C129.966 226.956 130.287 226.677 130.666 226.502L153.148 216.183C153.274 216.123 153.413 216.092 153.552 216.092C153.692 216.092 153.831 216.123 153.957 216.183L176.451 226.502C176.83 226.677 177.151 226.956 177.375 227.307C177.6 227.657 177.72 228.065 177.72 228.482C177.718 228.759 177.665 229.033 177.563 229.29Z" fill="#FFF163"/>
<path d="M267.331 183.373C259.463 183.373 251.77 185.705 245.228 190.072C238.685 194.44 233.586 200.648 230.574 207.911C227.563 215.175 226.775 223.167 228.31 230.878C229.845 238.588 233.635 245.671 239.199 251.23C244.763 256.789 251.852 260.575 259.57 262.109C267.287 263.642 275.287 262.855 282.557 259.847C289.827 256.838 296.04 251.743 300.412 245.206C304.784 238.67 307.117 230.985 307.117 223.123C307.117 212.581 302.925 202.47 295.464 195.016C288.003 187.561 277.883 183.373 267.331 183.373ZM285.659 226.997C285.249 226.997 283.883 226.985 283.485 226.961L275.644 226.756C275.604 226.755 275.564 226.764 275.528 226.783C275.492 226.802 275.461 226.83 275.439 226.864L263.673 244.438C263.498 244.712 263.257 244.938 262.972 245.094C262.687 245.25 262.367 245.332 262.042 245.331H259.179C258.502 245.331 258.272 244.655 258.514 244.028L264.566 226.78C264.58 226.744 264.585 226.706 264.581 226.667C264.577 226.629 264.564 226.593 264.542 226.561C264.521 226.529 264.492 226.502 264.459 226.484C264.425 226.465 264.387 226.455 264.349 226.454L249.647 226.128C249.494 226.125 249.343 226.157 249.204 226.222C249.066 226.287 248.944 226.383 248.85 226.502L244.295 232.018C244.113 232.247 243.881 232.432 243.618 232.559C243.354 232.687 243.066 232.753 242.773 232.754H240.755C240.678 232.755 240.602 232.737 240.533 232.703C240.464 232.668 240.405 232.617 240.359 232.554C240.314 232.491 240.285 232.418 240.274 232.342C240.263 232.266 240.271 232.188 240.296 232.115L242.7 223.823C242.882 223.361 242.882 222.848 242.7 222.387L240.296 214.095C240.271 214.022 240.263 213.944 240.274 213.867C240.285 213.791 240.314 213.718 240.359 213.656C240.405 213.593 240.464 213.542 240.533 213.507C240.602 213.472 240.678 213.454 240.755 213.455H242.785C243.078 213.453 243.368 213.519 243.632 213.646C243.896 213.774 244.127 213.96 244.307 214.191L248.777 219.623C248.871 219.743 248.992 219.84 249.131 219.905C249.269 219.97 249.421 220.001 249.574 219.997L264.361 219.78C264.4 219.779 264.438 219.77 264.472 219.751C264.506 219.733 264.535 219.707 264.557 219.674C264.578 219.642 264.591 219.605 264.595 219.567C264.599 219.528 264.593 219.489 264.579 219.454L258.526 202.218C258.285 201.591 258.514 200.915 259.191 200.915H262.054C262.379 200.915 262.698 200.997 262.983 201.153C263.268 201.309 263.509 201.534 263.685 201.808L275.439 219.393C275.46 219.428 275.49 219.457 275.527 219.476C275.563 219.496 275.604 219.504 275.644 219.502L283.485 219.297C283.871 219.273 285.249 219.261 285.659 219.261C291.023 219.261 294.394 220.999 294.394 223.135C294.394 225.271 291.011 226.997 285.659 226.997Z" fill="#FFF163"/>
<path d="M45.8389 357.11C44.1823 357.11 42.5629 356.62 41.1855 355.7C39.808 354.78 38.7345 353.474 38.1005 351.944C37.4666 350.415 37.3007 348.733 37.6239 347.109C37.9471 345.486 38.7448 343.995 39.9162 342.825C41.0876 341.654 42.58 340.857 44.2048 340.535C45.8296 340.212 47.5137 340.377 49.0442 341.011C50.5747 341.644 51.8828 342.717 52.8032 344.093C53.7235 345.469 54.2148 347.087 54.2148 348.742C54.2122 350.961 53.329 353.088 51.7587 354.657C50.1885 356.225 48.0595 357.108 45.8389 357.11ZM45.8389 341.768C44.4584 341.768 43.1089 342.177 41.961 342.944C40.8132 343.71 39.9185 344.799 39.3902 346.073C38.8619 347.348 38.7237 348.75 38.993 350.103C39.2624 351.455 39.9271 352.698 40.9033 353.673C41.8795 354.648 43.1232 355.313 44.4771 355.582C45.8311 355.851 47.2345 355.713 48.51 355.185C49.7854 354.657 50.8755 353.763 51.6425 352.616C52.4094 351.47 52.8188 350.121 52.8188 348.742C52.8167 346.893 52.0807 345.121 50.7721 343.813C49.4636 342.506 47.6894 341.771 45.8389 341.768Z" fill="#F0F0F0"/>
<path d="M222.431 169.521C220.775 169.521 219.155 169.03 217.778 168.11C216.4 167.191 215.327 165.884 214.693 164.355C214.059 162.826 213.893 161.143 214.216 159.52C214.539 157.897 215.337 156.406 216.508 155.235C217.68 154.065 219.172 153.268 220.797 152.945C222.422 152.622 224.106 152.788 225.636 153.421C227.167 154.055 228.475 155.127 229.395 156.503C230.316 157.879 230.807 159.497 230.807 161.153C230.804 163.371 229.921 165.498 228.351 167.067C226.781 168.636 224.652 169.518 222.431 169.521ZM222.431 154.179C221.051 154.179 219.701 154.588 218.553 155.354C217.405 156.12 216.511 157.21 215.982 158.484C215.454 159.758 215.316 161.16 215.585 162.513C215.855 163.866 216.519 165.108 217.496 166.084C218.472 167.059 219.715 167.723 221.069 167.992C222.423 168.261 223.827 168.123 225.102 167.595C226.378 167.067 227.468 166.174 228.235 165.027C229.002 163.88 229.411 162.532 229.411 161.153C229.409 159.304 228.673 157.531 227.364 156.224C226.056 154.916 224.282 154.181 222.431 154.179Z" fill="#F0F0F0"/>
<path d="M378.413 399.21L369.014 389.143L379.091 379.753L388.489 389.82L378.413 399.21ZM370.512 389.195L378.465 397.713L386.991 389.768L379.038 381.249L370.512 389.195Z" fill="#F0F0F0"/>
</g>
<defs>
<clipPath id="clip0_12:350">
<rect width="534" height="455" fill="white"/>
</clipPath>
</defs>
</svg>
