<svg width="98" height="91" viewBox="0 0 98 91" fill="none" xmlns="http://www.w3.org/2000/svg">
<path d="M29.0469 71C25.9531 71 23.0469 70.4219 20.3281 69.2656C17.6094 68.0781 15.2188 66.4688 13.1562 64.4375C11.125 62.375 9.51562 59.9844 8.32812 57.2656C7.17188 54.5469 6.59375 51.6406 6.59375 48.5469V33.6406H0.359375V20.8906H6.59375V0.828125H19.3438V20.8906H38.75V33.6406H19.3438V48.5469C19.3438 49.8906 19.5938 51.1562 20.0938 52.3438C20.5938 53.5 21.2812 54.5156 22.1562 55.3906C23.0312 56.2656 24.0625 56.9688 25.25 57.5C26.4375 58 27.7031 58.25 29.0469 58.25H38.75V71H29.0469ZM58.8594 90.125H45.9688V20.7969H49.0625L54.1719 26.8438C55.3281 25.75 56.5938 24.7188 57.9688 23.75C59.3438 22.7812 60.7656 21.9531 62.2344 21.2656C63.7344 20.5469 65.2812 19.9844 66.875 19.5781C68.4688 19.1719 70.0781 18.9688 71.7031 18.9688C75.2344 18.9688 78.5469 19.6094 81.6406 20.8906C84.7656 22.1406 87.4844 23.9219 89.7969 26.2344C92.1406 28.5469 93.9844 31.3438 95.3281 34.625C96.6719 37.875 97.3438 41.4844 97.3438 45.4531C97.3438 49.5781 96.6719 53.2969 95.3281 56.6094C93.9844 59.8906 92.1406 62.6875 89.7969 65C87.4844 67.2812 84.7656 69.0312 81.6406 70.25C78.5469 71.4688 75.2344 72.0781 71.7031 72.0781C70.5781 72.0781 69.4531 71.9531 68.3281 71.7031C67.2344 71.4531 66.1406 71.125 65.0469 70.7188C63.9844 70.2812 62.9219 69.7969 61.8594 69.2656C60.8281 68.7344 59.8281 68.1875 58.8594 67.625V90.125ZM84.5 45.4531C84.5 43.3281 84.1562 41.4219 83.4688 39.7344C82.8125 38.0469 81.9062 36.625 80.75 35.4688C79.5938 34.2812 78.2344 33.375 76.6719 32.75C75.1094 32.125 73.4531 31.8125 71.7031 31.8125C69.9531 31.8125 68.2969 32.125 66.7344 32.75C65.2031 33.375 63.8594 34.2812 62.7031 35.4688C61.5469 36.625 60.625 38.0469 59.9375 39.7344C59.2812 41.4219 58.9531 43.3281 58.9531 45.4531C58.9531 47.4844 59.2812 49.3438 59.9375 51.0312C60.625 52.7188 61.5469 54.1562 62.7031 55.3438C63.8594 56.5312 65.2031 57.4531 66.7344 58.1094C68.2969 58.7656 69.9531 59.0938 71.7031 59.0938C73.4531 59.0938 75.1094 58.7656 76.6719 58.1094C78.2344 57.4531 79.5938 56.5312 80.75 55.3438C81.9062 54.1562 82.8125 52.7188 83.4688 51.0312C84.1562 49.3438 84.5 47.4844 84.5 45.4531Z" fill="white"/>
</svg>
