<svg
	width="50"
	height="46"
	viewBox="0 0 50 46"
	fill="none"
	xmlns="http://www.w3.org/2000/svg"
>
	<path
		d="M14.875 36C13.3281 36 11.875 35.7109 10.5156 35.1328C9.15625 34.5391 7.96094 33.7344 6.92969 32.7188C5.91406 31.6875 5.10938 30.4922 4.51562 29.1328C3.9375 27.7734 3.64844 26.3203 3.64844 24.7734V17.3203H0.53125V10.9453H3.64844V0.914062H10.0234V10.9453H19.7266V17.3203H10.0234V24.7734C10.0234 25.4453 10.1484 26.0781 10.3984 26.6719C10.6484 27.25 10.9922 27.7578 11.4297 28.1953C11.8672 28.6328 12.3828 28.9844 12.9766 29.25C13.5703 29.5 14.2031 29.625 14.875 29.625H19.7266V36H14.875ZM29.7812 45.5625H23.3359V10.8984H24.8828L27.4375 13.9219C28.0156 13.375 28.6484 12.8594 29.3359 12.375C30.0234 11.8906 30.7344 11.4766 31.4688 11.1328C32.2188 10.7734 32.9922 10.4922 33.7891 10.2891C34.5859 10.0859 35.3906 9.98438 36.2031 9.98438C37.9688 9.98438 39.625 10.3047 41.1719 10.9453C42.7344 11.5703 44.0938 12.4609 45.25 13.6172C46.4219 14.7734 47.3438 16.1719 48.0156 17.8125C48.6875 19.4375 49.0234 21.2422 49.0234 23.2266C49.0234 25.2891 48.6875 27.1484 48.0156 28.8047C47.3438 30.4453 46.4219 31.8438 45.25 33C44.0938 34.1406 42.7344 35.0156 41.1719 35.625C39.625 36.2344 37.9688 36.5391 36.2031 36.5391C35.6406 36.5391 35.0781 36.4766 34.5156 36.3516C33.9688 36.2266 33.4219 36.0625 32.875 35.8594C32.3438 35.6406 31.8125 35.3984 31.2812 35.1328C30.7656 34.8672 30.2656 34.5938 29.7812 34.3125V45.5625ZM42.6016 23.2266C42.6016 22.1641 42.4297 21.2109 42.0859 20.3672C41.7578 19.5234 41.3047 18.8125 40.7266 18.2344C40.1484 17.6406 39.4688 17.1875 38.6875 16.875C37.9062 16.5625 37.0781 16.4062 36.2031 16.4062C35.3281 16.4062 34.5 16.5625 33.7188 16.875C32.9531 17.1875 32.2812 17.6406 31.7031 18.2344C31.125 18.8125 30.6641 19.5234 30.3203 20.3672C29.9922 21.2109 29.8281 22.1641 29.8281 23.2266C29.8281 24.2422 29.9922 25.1719 30.3203 26.0156C30.6641 26.8594 31.125 27.5781 31.7031 28.1719C32.2812 28.7656 32.9531 29.2266 33.7188 29.5547C34.5 29.8828 35.3281 30.0469 36.2031 30.0469C37.0781 30.0469 37.9062 29.8828 38.6875 29.5547C39.4688 29.2266 40.1484 28.7656 40.7266 28.1719C41.3047 27.5781 41.7578 26.8594 42.0859 26.0156C42.4297 25.1719 42.6016 24.2422 42.6016 23.2266Z"
		fill="#39374E"
/>
</svg>