<svg width="493" height="91" viewBox="0 0 493 91" fill="none" xmlns="http://www.w3.org/2000/svg">
<path d="M29.5469 71.0648C26.4531 71.0648 23.5469 70.4866 20.8281 69.3304C18.1094 68.1429 15.7188 66.5335 13.6562 64.5023C11.625 62.4398 10.0156 60.0491 8.82812 57.3304C7.67188 54.6116 7.09375 51.7054 7.09375 48.6116V33.7054H0.859375V20.9554H7.09375V0.892899H19.8438V20.9554H39.25V33.7054H19.8438V48.6116C19.8438 49.9554 20.0938 51.221 20.5938 52.4085C21.0938 53.5648 21.7812 54.5804 22.6562 55.4554C23.5312 56.3304 24.5625 57.0335 25.75 57.5648C26.9375 58.0648 28.2031 58.3148 29.5469 58.3148H39.25V71.0648H29.5469ZM59.2656 71.0648H46.4688V20.8616H49.5625L53.7812 26.8148C55.8438 24.9398 58.1875 23.5023 60.8125 22.5023C63.4375 21.471 66.1562 20.9554 68.9688 20.9554H80.2656V33.7054H68.9688C67.625 33.7054 66.3594 33.9554 65.1719 34.4554C63.9844 34.9554 62.9531 35.6429 62.0781 36.5179C61.2031 37.3929 60.5156 38.4241 60.0156 39.6116C59.5156 40.7991 59.2656 42.0648 59.2656 43.4085V71.0648ZM133.891 71.0648H130.797L125.828 64.1741C124.609 65.2679 123.312 66.2991 121.938 67.2679C120.594 68.2054 119.172 69.0335 117.672 69.7523C116.172 70.4398 114.625 70.9866 113.031 71.3929C111.469 71.7991 109.875 72.0023 108.25 72.0023C104.719 72.0023 101.391 71.4085 98.2656 70.221C95.1719 69.0335 92.4531 67.3148 90.1094 65.0648C87.7969 62.7835 85.9688 60.0023 84.625 56.721C83.2812 53.4398 82.6094 49.7054 82.6094 45.5179C82.6094 41.6116 83.2812 38.0335 84.625 34.7835C85.9688 31.5023 87.7969 28.6898 90.1094 26.346C92.4531 24.0023 95.1719 22.1898 98.2656 20.9085C101.391 19.596 104.719 18.9398 108.25 18.9398C109.875 18.9398 111.484 19.1429 113.078 19.5491C114.672 19.9554 116.219 20.5179 117.719 21.2366C119.219 21.9554 120.641 22.7991 121.984 23.7679C123.359 24.7366 124.641 25.7835 125.828 26.9085L130.797 20.9554H133.891V71.0648ZM121 45.5179C121 43.7679 120.656 42.0804 119.969 40.4554C119.312 38.7991 118.406 37.346 117.25 36.096C116.094 34.8148 114.734 33.7991 113.172 33.0491C111.641 32.2679 110 31.8773 108.25 31.8773C106.5 31.8773 104.844 32.1741 103.281 32.7679C101.75 33.3616 100.406 34.2366 99.25 35.3929C98.125 36.5491 97.2344 37.9866 96.5781 39.7054C95.9219 41.3929 95.5938 43.3304 95.5938 45.5179C95.5938 47.7054 95.9219 49.6585 96.5781 51.3773C97.2344 53.0648 98.125 54.4866 99.25 55.6429C100.406 56.7991 101.75 57.6741 103.281 58.2679C104.844 58.8616 106.5 59.1585 108.25 59.1585C110 59.1585 111.641 58.7835 113.172 58.0335C114.734 57.2523 116.094 56.2366 117.25 54.9866C118.406 53.7054 119.312 52.2523 119.969 50.6273C120.656 48.971 121 47.2679 121 45.5179ZM156.484 71.0648H143.688V20.8616H146.781L151 25.7366C153.062 23.8616 155.391 22.4241 157.984 21.4241C160.609 20.3929 163.344 19.8773 166.188 19.8773C169.25 19.8773 172.141 20.471 174.859 21.6585C177.578 22.8148 179.953 24.4241 181.984 26.4866C184.016 28.5179 185.609 30.9085 186.766 33.6585C187.953 36.3773 188.547 39.2835 188.547 42.3773V71.0648H175.75V42.3773C175.75 41.0648 175.5 39.8304 175 38.6741C174.5 37.4866 173.812 36.4554 172.938 35.5804C172.062 34.7054 171.047 34.0179 169.891 33.5179C168.734 33.0179 167.5 32.7679 166.188 32.7679C164.844 32.7679 163.578 33.0179 162.391 33.5179C161.203 34.0179 160.172 34.7054 159.297 35.5804C158.422 36.4554 157.734 37.4866 157.234 38.6741C156.734 39.8304 156.484 41.0648 156.484 42.3773V71.0648ZM225.25 71.0648H196V58.3148H225.25C226.125 58.3148 226.875 58.0023 227.5 57.3773C228.125 56.7523 228.438 56.0023 228.438 55.1273C228.438 54.221 228.125 53.6273 227.5 53.346C226.875 53.0648 226.125 52.9241 225.25 52.9241H211.938C209.719 52.9241 207.641 52.5023 205.703 51.6585C203.766 50.8148 202.078 49.6741 200.641 48.2366C199.203 46.7679 198.062 45.0648 197.219 43.1273C196.406 41.1898 196 39.1116 196 36.8929C196 34.6741 196.406 32.596 197.219 30.6585C198.062 28.721 199.203 27.0335 200.641 25.596C202.078 24.1585 203.766 23.0335 205.703 22.221C207.641 21.3773 209.719 20.9554 211.938 20.9554H237.859V33.7054H211.938C211.062 33.7054 210.312 34.0179 209.688 34.6429C209.062 35.2679 208.75 36.0179 208.75 36.8929C208.75 37.7991 209.062 38.5804 209.688 39.2366C210.312 39.8616 211.062 40.1741 211.938 40.1741H225.25C227.438 40.1741 229.5 40.5491 231.438 41.2991C233.375 42.0179 235.062 43.0335 236.5 44.346C237.938 45.6585 239.078 47.2366 239.922 49.0804C240.766 50.9241 241.188 52.9398 241.188 55.1273C241.188 57.346 240.766 59.4241 239.922 61.3616C239.078 63.2679 237.938 64.9554 236.5 66.4241C235.062 67.8616 233.375 69.0023 231.438 69.846C229.5 70.6585 227.438 71.0648 225.25 71.0648ZM260.922 90.1898H248.031V20.8616H251.125L256.234 26.9085C257.391 25.8148 258.656 24.7835 260.031 23.8148C261.406 22.846 262.828 22.0179 264.297 21.3304C265.797 20.6116 267.344 20.0491 268.938 19.6429C270.531 19.2366 272.141 19.0335 273.766 19.0335C277.297 19.0335 280.609 19.6741 283.703 20.9554C286.828 22.2054 289.547 23.9866 291.859 26.2991C294.203 28.6116 296.047 31.4085 297.391 34.6898C298.734 37.9398 299.406 41.5491 299.406 45.5179C299.406 49.6429 298.734 53.3616 297.391 56.6741C296.047 59.9554 294.203 62.7523 291.859 65.0648C289.547 67.346 286.828 69.096 283.703 70.3148C280.609 71.5335 277.297 72.1429 273.766 72.1429C272.641 72.1429 271.516 72.0179 270.391 71.7679C269.297 71.5179 268.203 71.1898 267.109 70.7835C266.047 70.346 264.984 69.8616 263.922 69.3304C262.891 68.7991 261.891 68.2523 260.922 67.6898V90.1898ZM286.562 45.5179C286.562 43.3929 286.219 41.4866 285.531 39.7991C284.875 38.1116 283.969 36.6898 282.812 35.5335C281.656 34.346 280.297 33.4398 278.734 32.8148C277.172 32.1898 275.516 31.8773 273.766 31.8773C272.016 31.8773 270.359 32.1898 268.797 32.8148C267.266 33.4398 265.922 34.346 264.766 35.5335C263.609 36.6898 262.688 38.1116 262 39.7991C261.344 41.4866 261.016 43.3929 261.016 45.5179C261.016 47.5491 261.344 49.4085 262 51.096C262.688 52.7835 263.609 54.221 264.766 55.4085C265.922 56.596 267.266 57.5179 268.797 58.1741C270.359 58.8304 272.016 59.1585 273.766 59.1585C275.516 59.1585 277.172 58.8304 278.734 58.1741C280.297 57.5179 281.656 56.596 282.812 55.4085C283.969 54.221 284.875 52.7835 285.531 51.096C286.219 49.4085 286.562 47.5491 286.562 45.5179ZM355.047 45.5179C355.047 49.2679 354.375 52.7679 353.031 56.0179C351.688 59.2366 349.859 62.0335 347.547 64.4085C345.234 66.7523 342.516 68.6116 339.391 69.9866C336.297 71.3304 332.969 72.0023 329.406 72.0023C325.875 72.0023 322.547 71.3304 319.422 69.9866C316.328 68.6116 313.609 66.7523 311.266 64.4085C308.953 62.0335 307.125 59.2366 305.781 56.0179C304.438 52.7679 303.766 49.2679 303.766 45.5179C303.766 41.7054 304.438 38.1741 305.781 34.9241C307.125 31.6741 308.953 28.8773 311.266 26.5335C313.609 24.1585 316.328 22.2991 319.422 20.9554C322.547 19.6116 325.875 18.9398 329.406 18.9398C332.969 18.9398 336.297 19.5804 339.391 20.8616C342.516 22.1116 345.234 23.9085 347.547 26.2523C349.859 28.5648 351.688 31.3616 353.031 34.6429C354.375 37.8929 355.047 41.5179 355.047 45.5179ZM342.156 45.5179C342.156 43.4554 341.812 41.596 341.125 39.9398C340.469 38.2523 339.562 36.8148 338.406 35.6273C337.25 34.4085 335.891 33.4866 334.328 32.8616C332.797 32.2054 331.156 31.8773 329.406 31.8773C327.656 31.8773 326 32.2054 324.438 32.8616C322.906 33.4866 321.562 34.4085 320.406 35.6273C319.281 36.8148 318.391 38.2523 317.734 39.9398C317.078 41.596 316.75 43.4554 316.75 45.5179C316.75 47.4554 317.078 49.2523 317.734 50.9085C318.391 52.5648 319.281 54.0023 320.406 55.221C321.562 56.4398 322.906 57.4085 324.438 58.1273C326 58.8148 327.656 59.1585 329.406 59.1585C331.156 59.1585 332.797 58.8304 334.328 58.1741C335.891 57.5179 337.25 56.596 338.406 55.4085C339.562 54.221 340.469 52.7835 341.125 51.096C341.812 49.4085 342.156 47.5491 342.156 45.5179ZM374.922 71.0648H362.125V20.8616H365.219L369.438 26.8148C371.5 24.9398 373.844 23.5023 376.469 22.5023C379.094 21.471 381.812 20.9554 384.625 20.9554H395.922V33.7054H384.625C383.281 33.7054 382.016 33.9554 380.828 34.4554C379.641 34.9554 378.609 35.6429 377.734 36.5179C376.859 37.3929 376.172 38.4241 375.672 39.6116C375.172 40.7991 374.922 42.0648 374.922 43.4085V71.0648ZM427.047 71.0648C423.953 71.0648 421.047 70.4866 418.328 69.3304C415.609 68.1429 413.219 66.5335 411.156 64.5023C409.125 62.4398 407.516 60.0491 406.328 57.3304C405.172 54.6116 404.594 51.7054 404.594 48.6116V33.7054H398.359V20.9554H404.594V0.892899H417.344V20.9554H436.75V33.7054H417.344V48.6116C417.344 49.9554 417.594 51.221 418.094 52.4085C418.594 53.5648 419.281 54.5804 420.156 55.4554C421.031 56.3304 422.062 57.0335 423.25 57.5648C424.438 58.0648 425.703 58.3148 427.047 58.3148H436.75V71.0648H427.047ZM492.578 71.0648H489.484L484.516 64.1741C483.297 65.2679 482 66.2991 480.625 67.2679C479.281 68.2054 477.859 69.0335 476.359 69.7523C474.859 70.4398 473.312 70.9866 471.719 71.3929C470.156 71.7991 468.562 72.0023 466.938 72.0023C463.406 72.0023 460.078 71.4085 456.953 70.221C453.859 69.0335 451.141 67.3148 448.797 65.0648C446.484 62.7835 444.656 60.0023 443.312 56.721C441.969 53.4398 441.297 49.7054 441.297 45.5179C441.297 41.6116 441.969 38.0335 443.312 34.7835C444.656 31.5023 446.484 28.6898 448.797 26.346C451.141 24.0023 453.859 22.1898 456.953 20.9085C460.078 19.596 463.406 18.9398 466.938 18.9398C468.562 18.9398 470.172 19.1429 471.766 19.5491C473.359 19.9554 474.906 20.5179 476.406 21.2366C477.906 21.9554 479.328 22.7991 480.672 23.7679C482.047 24.7366 483.328 25.7835 484.516 26.9085L489.484 20.9554H492.578V71.0648ZM479.688 45.5179C479.688 43.7679 479.344 42.0804 478.656 40.4554C478 38.7991 477.094 37.346 475.938 36.096C474.781 34.8148 473.422 33.7991 471.859 33.0491C470.328 32.2679 468.688 31.8773 466.938 31.8773C465.188 31.8773 463.531 32.1741 461.969 32.7679C460.438 33.3616 459.094 34.2366 457.938 35.3929C456.812 36.5491 455.922 37.9866 455.266 39.7054C454.609 41.3929 454.281 43.3304 454.281 45.5179C454.281 47.7054 454.609 49.6585 455.266 51.3773C455.922 53.0648 456.812 54.4866 457.938 55.6429C459.094 56.7991 460.438 57.6741 461.969 58.2679C463.531 58.8616 465.188 59.1585 466.938 59.1585C468.688 59.1585 470.328 58.7835 471.859 58.0335C473.422 57.2523 474.781 56.2366 475.938 54.9866C477.094 53.7054 478 52.2523 478.656 50.6273C479.344 48.971 479.688 47.2679 479.688 45.5179Z" fill="#39374E"/>
</svg>
